<svg width="96" height="96" viewBox="0 0 96 96" fill="none" xmlns="http://www.w3.org/2000/svg">
<path d="M69.999 48C69.999 48.131 69.9923 48.2622 69.9795 48.3926C69.9667 48.5228 69.9474 48.652 69.9219 48.7803C69.8963 48.9087 69.8652 49.0358 69.8271 49.1611C69.7891 49.2864 69.7444 49.4093 69.6943 49.5303C69.6442 49.6513 69.5881 49.7702 69.5264 49.8857C69.4647 50.001 69.3978 50.113 69.3252 50.2217C69.2524 50.3306 69.1739 50.4359 69.0908 50.5371C69.0078 50.6382 68.9206 50.7356 68.8281 50.8281C68.7355 50.9207 68.6383 51.0087 68.5371 51.0918C68.4359 51.1749 68.3305 51.2524 68.2217 51.3252C68.1128 51.398 68.0003 51.4656 67.8848 51.5273C67.7693 51.589 67.6512 51.6452 67.5303 51.6953C67.4094 51.7454 67.2863 51.7892 67.1611 51.8271C67.0359 51.8652 66.9087 51.8973 66.7803 51.9229C66.6518 51.9484 66.5219 51.9676 66.3916 51.9805C66.2614 51.9933 66.1308 52 66 52H38.54L43.0723 57.4404C43.3715 57.7996 43.6006 58.1991 43.7598 58.6387C43.919 59.0785 43.999 59.5323 43.999 60C43.999 60.131 43.9923 60.2622 43.9795 60.3926C43.9667 60.5228 43.9474 60.652 43.9219 60.7803C43.8963 60.9087 43.8652 61.0358 43.8271 61.1611C43.7891 61.2864 43.7444 61.4093 43.6943 61.5303C43.6442 61.6513 43.5881 61.7702 43.5264 61.8857C43.4647 62.001 43.3978 62.113 43.3252 62.2217C43.2524 62.3306 43.1739 62.4359 43.0908 62.5371C43.0078 62.6382 42.9206 62.7356 42.8281 62.8281C42.7355 62.9207 42.6383 63.0087 42.5371 63.0918C42.4359 63.1749 42.3305 63.2524 42.2217 63.3252C42.1128 63.398 42.0003 63.4656 41.8848 63.5273C41.7693 63.589 41.6512 63.6452 41.5303 63.6953C41.4094 63.7454 41.2863 63.7892 41.1611 63.8271C41.0359 63.8652 40.9087 63.8973 40.7803 63.9229C40.6518 63.9484 40.5219 63.9676 40.3916 63.9805C40.2614 63.9933 40.1308 63.999 40 63.999C39.7069 63.999 39.417 63.968 39.1309 63.9043C38.8448 63.8406 38.5691 63.7463 38.3037 63.6221C38.0384 63.4978 37.7896 63.3459 37.5576 63.167C37.3255 62.988 37.1144 62.7857 36.9268 62.5605L27.5674 51.3291C27.4484 51.1864 27.3377 51.0407 27.2363 50.8916C27.0411 50.705 26.8668 50.5003 26.7129 50.2783C26.559 50.0562 26.4285 49.8207 26.3223 49.5723C26.2161 49.3239 26.1362 49.0673 26.082 48.8027C26.0278 48.538 26.001 48.2702 26.001 48C26.001 47.73 26.0279 47.4628 26.082 47.1982C26.1362 46.9335 26.216 46.6762 26.3223 46.4277C26.4284 46.1794 26.5591 45.9446 26.7129 45.7227C26.8667 45.5007 27.0411 45.296 27.2363 45.1094C27.3377 44.9602 27.4484 44.8137 27.5674 44.6709L36.9277 33.4404C37.1154 33.2152 37.3255 33.013 37.5576 32.834C37.7897 32.655 38.0383 32.5032 38.3037 32.3789C38.5691 32.2546 38.8448 32.1604 39.1309 32.0967C39.417 32.033 39.7069 32.001 40 32.001C40.1309 32.001 40.2614 32.0077 40.3916 32.0205C40.5219 32.0333 40.6518 32.0526 40.7803 32.0781C40.9086 32.1037 41.0359 32.1349 41.1611 32.1729C41.2864 32.2109 41.4094 32.2556 41.5303 32.3057C41.6512 32.3558 41.7693 32.4119 41.8848 32.4736C42.0003 32.5354 42.1128 32.6021 42.2217 32.6748C42.3306 32.7476 42.4359 32.8261 42.5371 32.9092C42.6382 32.9922 42.7356 33.0794 42.8281 33.1719C42.9206 33.2644 43.0078 33.3618 43.0908 33.4629C43.1739 33.5641 43.2524 33.6694 43.3252 33.7783C43.3979 33.8872 43.4646 33.9997 43.5264 34.1152C43.5881 34.2307 43.6442 34.3488 43.6943 34.4697C43.7444 34.5906 43.7891 34.7136 43.8271 34.8389C43.8651 34.9641 43.8963 35.0914 43.9219 35.2197C43.9474 35.3482 43.9667 35.4781 43.9795 35.6084C43.9923 35.7386 43.999 35.8691 43.999 36C43.999 36.4677 43.919 36.9215 43.7598 37.3613C43.6005 37.8012 43.3717 38.2012 43.0723 38.5605L38.54 44L66 44.001C66.1309 44.001 66.2614 44.0077 66.3916 44.0205C66.5219 44.0333 66.6518 44.0526 66.7803 44.0781C66.9086 44.1037 67.0359 44.1349 67.1611 44.1729C67.2864 44.2109 67.4094 44.2556 67.5303 44.3057C67.6512 44.3558 67.7693 44.4119 67.8848 44.4736C68.0003 44.5354 68.1128 44.6021 68.2217 44.6748C68.3306 44.7476 68.4359 44.8261 68.5371 44.9092C68.6382 44.9922 68.7356 45.0794 68.8281 45.1719C68.9206 45.2644 69.0078 45.3618 69.0908 45.4629C69.1739 45.5641 69.2524 45.6694 69.3252 45.7783C69.3979 45.8872 69.4646 45.9997 69.5264 46.1152C69.5881 46.2307 69.6442 46.3488 69.6943 46.4697C69.7444 46.5906 69.7891 46.7136 69.8271 46.8389C69.8651 46.9641 69.8963 47.0914 69.9219 47.2197C69.9474 47.3482 69.9667 47.4781 69.9795 47.6084C69.9923 47.7386 69.999 47.8691 69.999 48Z" fill="black"/>
<path fill-rule="evenodd" clip-rule="evenodd" d="M88 48C88 59.0456 84.0946 68.4737 76.2842 76.2842C68.4737 84.0946 59.0456 88 48 88C36.9543 88 27.5263 84.0947 19.7158 76.2842C11.9053 68.4737 8 59.0457 8 48C8.00003 36.9544 11.9054 27.5263 19.7158 19.7158C27.5263 11.9054 36.9544 8 48 8C59.0456 8.00003 68.4737 11.9054 76.2842 19.7158C84.0946 27.5263 88 36.9544 88 48ZM80 48C80 39.1635 76.8753 31.6214 70.627 25.373C64.3786 19.1247 56.8365 16 48 16C39.1634 16 31.6205 19.1247 25.3721 25.373C19.124 31.6213 16 39.1637 16 48C16 56.8366 19.1237 64.3795 25.3721 70.6279C31.6205 76.8763 39.1635 80 48 80C56.8363 80 64.3787 76.876 70.627 70.6279C76.8753 64.3795 80 56.8365 80 48Z" fill="black"/>
</svg>
