<svg width="96" height="96" viewBox="0 0 96 96" fill="none" xmlns="http://www.w3.org/2000/svg">
<path d="M48 48.9995C50.2091 48.9995 52 50.7904 52 52.9995V62.9995C52 65.2087 50.2091 66.9995 48 66.9995C45.7909 66.9995 44 65.2087 44 62.9995V52.9995C44 50.7904 45.7909 48.9995 48 48.9995Z" fill="black"/>
<path fill-rule="evenodd" clip-rule="evenodd" d="M41.9258 11.0445C45.5112 8.31851 50.4888 8.31851 54.0742 11.0445L77.3643 28.7525C82.8074 32.8912 86 39.3162 86 46.1294V65.1245C86 77.2056 76.1503 86.9995 64 86.9995H32C19.8497 86.9995 10 77.2056 10 65.1245V46.1294C10 39.3162 13.1927 32.8912 18.6357 28.7525L41.9258 11.0445ZM49.2148 17.3638C48.4977 16.8185 47.5023 16.8185 46.7852 17.3638L23.4961 35.0718C20.0323 37.7056 18 41.7937 18 46.1294V65.1245C18 72.8125 24.268 79.0454 32 79.0454H64C71.732 79.0454 78 72.8125 78 65.1245V46.1294C78 41.7937 75.9677 37.7056 72.5039 35.0718L49.2148 17.3638Z" fill="black"/>
</svg>
