<?xml version="1.0" encoding="UTF-8"?>
<svg id="_图层_1" data-name="图层_1" xmlns="http://www.w3.org/2000/svg" xmlns:xlink="http://www.w3.org/1999/xlink" version="1.1" viewBox="0 0 96 96">
  <!-- Generator: Adobe Illustrator 29.2.1, SVG Export Plug-In . SVG Version: 2.1.0 Build 116)  -->
  <defs>
    <style>
      .st0 {
        fill: #11192d;
      }
    </style>
  </defs>
  <path class="st0" d="M48,1.2c25.8,0,46.8,21,46.8,46.8s-21,46.8-46.8,46.8S1.2,73.8,1.2,48,22.2,1.2,48,1.2ZM48,9.5c-21.3,0-38.5,17.2-38.5,38.5s17.2,38.5,38.5,38.5,38.5-17.2,38.5-38.5S69.3,9.5,48,9.5ZM48,27.3c2.3,0,4.1,1.9,4.1,4.1v12.4s12.4,0,12.4,0c2.3,0,4.1,1.9,4.1,4.1s-1.9,4.1-4.1,4.1h-12.4s0,12.4,0,12.4c0,2.3-1.9,4.1-4.1,4.1s-4.1-1.9-4.1-4.1v-12.4s-12.4,0-12.4,0c-2.3,0-4.1-1.9-4.1-4.1s1.9-4.1,4.1-4.1h12.4s0-12.4,0-12.4c0-2.3,1.9-4.1,4.1-4.1Z"/>
</svg>