<svg xmlns="http://www.w3.org/2000/svg" viewBox="0 0 96 96">
    <path d="M77 13c6.1 0 11 4.9 11 11v14c0 1.7-1.3 3-3 3-3.9 0-7 3.1-7 7s3.1 7 7 7c1.7 0 3 1.3 3 3v14c0 6.1-4.9 11-11 11H19c-6.1 0-11-4.9-11-11V58c0-1.7 1.3-3 3-3 3.9 0 7-3.1 7-7s-3.1-7-7-7c-1.7 0-3-1.3-3-3V24c0-6.1 4.9-11 11-11h58zm0 6H19c-2.8 0-5 2.2-5 5v11.3c5.7 1.4 10 6.5 10 12.7s-4.3 11.3-10 12.7V72c0 2.8 2.2 5 5 5h58c2.8 0 5-2.2 5-5V60.7c-5.7-1.4-10-6.5-10-12.7s4.3-11.3 10-12.7V24c0-2.8-2.2-5-5-5zM48 35.5c1.7 0 3 1.3 3 3v7h7c1.6 0 2.9 1.2 3 2.8v.2c0 1.7-1.3 3-3 3h-7v7c0 1.6-1.2 2.9-2.8 3H48c-1.7 0-3-1.3-3-3v-7h-7c-1.6 0-2.9-1.2-3-2.8v-.2c0-1.7 1.3-3 3-3h7v-7c0-1.6 1.2-2.9 2.8-3h.2z"/>
</svg>
