<svg xmlns="http://www.w3.org/2000/svg" viewBox="0 0 96 96">
    <path d="M31.9 19c11.7 0 23.6 8.1 36 23.9 4-5.2 8.3-7.9 12.9-7.9C87.6 35 93 40.9 93 48s-5.4 13-12.2 13c-4.6 0-8.9-2.7-12.9-7.9C55.5 68.9 43.6 77 31.9 77 15.9 77 3 64 3 48s12.9-29 28.9-29zm0 6C19.3 25 9 35.3 9 48s10.3 23 22.9 23c9.7 0 20.6-7.6 32.3-23-11.7-15.4-22.5-23-32.3-23zm4.2 24.7c1.3-1.1 3.2-.9 4.2.4 1.1 1.3.9 3.2-.4 4.2L36.7 57l3.2 2.7c1.3 1.1 1.4 3 .4 4.2-1.1 1.3-3 1.4-4.2.4l-6-5c-1.4-1.2-1.4-3.4 0-4.6l6-5zm-13-9c1.3-1.1 3.2-.9 4.2.4 1.1 1.3.9 3.2-.4 4.2L23.7 48l3.2 2.7c1.3 1.1 1.4 3 .4 4.2-1.1 1.3-3 1.4-4.2.4l-6-5c-1.4-1.2-1.4-3.4 0-4.6l6-5zm57.7.3c-2.8 0-5.9 2.2-9.1 6.9l.1.1-.1.1c3.3 4.7 6.4 6.9 9.1 6.9 3.4 0 6.2-3.1 6.2-7s-2.8-7-6.2-7zm-44.7-9.3c1.3-1.1 3.2-.9 4.2.4 1.1 1.3.9 3.2-.4 4.2L36.7 39l3.2 2.7c1.3 1.1 1.4 3 .4 4.2-1.1 1.3-3 1.4-4.2.4l-6-5c-1.4-1.2-1.4-3.4 0-4.6l6-5z"/>
</svg>
