<?xml version="1.0" encoding="utf-8"?>
<!-- Generator: Adobe Illustrator 27.7.0, SVG Export Plug-In . SVG Version: 6.00 Build 0)  -->
<svg version="1.1" id="图层_1" xmlns="http://www.w3.org/2000/svg" xmlns:xlink="http://www.w3.org/1999/xlink" x="0px" y="0px"
	 viewBox="0 0 96 96" style="enable-background:new 0 0 96 96;" xml:space="preserve">
<path id="形状结合" d="M79,37c3.9,0,7,3.1,7,7v8c0,3.9-3.1,7-7,7H17c-3.9,0-7-3.1-7-7v-8c0-3.9,3.1-7,7-7H79z M79,43H17
	c-0.6,0-1,0.4-1,1v8c0,0.6,0.4,1,1,1h62c0.6,0,1-0.4,1-1v-8C80,43.4,79.6,43,79,43z M48,14c1.7,0,3,1.3,3,3v13c0,1.7-1.3,3-3,3
	s-3-1.3-3-3V17C45,15.3,46.3,14,48,14z M48,63c1.7,0,3,1.3,3,3v13c0,1.7-1.3,3-3,3s-3-1.3-3-3V66C45,64.3,46.3,63,48,63z"/>
</svg>
