<?xml version="1.0" encoding="utf-8"?>
<!-- Generator: Adobe Illustrator 27.7.0, SVG Export Plug-In . SVG Version: 6.00 Build 0)  -->
<svg version="1.1" id="图层_1" xmlns="http://www.w3.org/2000/svg" xmlns:xlink="http://www.w3.org/1999/xlink" x="0px" y="0px"
	 viewBox="0 0 96 96" style="enable-background:new 0 0 96 96;" xml:space="preserve">
<path id="形状结合" d="M65,51c3.9,0,7,3.1,7,7v8c0,3.9-3.1,7-7,7H17c-3.9,0-7-3.1-7-7v-8c0-3.9,3.1-7,7-7H65z M65,57H17
	c-0.6,0-1,0.4-1,1v8c0,0.6,0.4,1,1,1h48c0.6,0,1-0.4,1-1v-8C66,57.4,65.6,57,65,57z M65,23c3.9,0,7,3.1,7,7v8c0,3.9-3.1,7-7,7H34
	c-3.9,0-7-3.1-7-7v-8c0-3.9,3.1-7,7-7H65z M65,29H34c-0.6,0-1,0.4-1,1v8c0,0.6,0.4,1,1,1h31c0.6,0,1-0.4,1-1v-8
	C66,29.4,65.6,29,65,29z M83,14c1.7,0,3,1.3,3,3v62c0,1.7-1.3,3-3,3s-3-1.3-3-3V17C80,15.3,81.3,14,83,14z"/>
</svg>
