<?xml version="1.0" encoding="utf-8"?>
<!-- Generator: Adobe Illustrator 27.7.0, SVG Export Plug-In . SVG Version: 6.00 Build 0)  -->
<svg version="1.1" id="图层_1" xmlns="http://www.w3.org/2000/svg" xmlns:xlink="http://www.w3.org/1999/xlink" x="0px" y="0px"
	 viewBox="0 0 96 96" style="enable-background:new 0 0 96 96;" xml:space="preserve">
<path id="形状结合" d="M79,51c3.9,0,7,3.1,7,7v8c0,3.9-3.1,7-7,7H31c-3.9,0-7-3.1-7-7v-8c0-3.9,3.1-7,7-7H79z M79,57H31
	c-0.6,0-1,0.4-1,1v8c0,0.6,0.4,1,1,1h48c0.6,0,1-0.4,1-1v-8C80,57.4,79.6,57,79,57z M62,23c3.9,0,7,3.1,7,7v8c0,3.9-3.1,7-7,7H31
	c-3.9,0-7-3.1-7-7v-8c0-3.9,3.1-7,7-7H62z M62,29H31c-0.6,0-1,0.4-1,1v8c0,0.6,0.4,1,1,1h31c0.6,0,1-0.4,1-1v-8
	C63,29.4,62.6,29,62,29z M13,14c1.7,0,3,1.3,3,3v62c0,1.7-1.3,3-3,3s-3-1.3-3-3V17C10,15.3,11.3,14,13,14z"/>
</svg>
