<svg xmlns="http://www.w3.org/2000/svg" viewBox="0 0 96 96">
    <path d="M58 8c3.5 0 6.4 2.6 6.9 6H72c6.1 0 11 4.9 11 11v52c0 6.1-4.9 11-11 11H24c-6.1 0-11-4.9-11-11V25c0-6.1 4.9-11 11-11h7.1c.5-3.4 3.4-6 6.9-6h20zm14 12h-7.1c-.5 3.4-3.4 6-6.9 6H38c-3.5 0-6.4-2.6-6.9-6H24c-2.8 0-5 2.2-5 5v52c0 2.8 2.2 5 5 5h48c2.8 0 5-2.2 5-5V25c0-2.8-2.2-5-5-5zM44 65c1.7 0 3 1.3 3 3s-1.3 3-3 3H32c-1.7 0-3-1.3-3-3s1.3-3 3-3h12zm10-14c1.7 0 3 1.3 3 3s-1.3 3-3 3H32c-1.7 0-3-1.3-3-3s1.3-3 3-3h22zm10-14c1.7 0 3 1.3 3 3s-1.3 3-3 3H32c-1.7 0-3-1.3-3-3s1.3-3 3-3h32zm-6-23H38c-.6 0-1 .4-1 1v4c0 .6.4 1 1 1h20c.6 0 1-.4 1-1v-4c0-.6-.4-1-1-1z"/>
</svg>
