<svg xmlns="http://www.w3.org/2000/svg" viewBox="0 0 96 96">
    <path d="M48 12c15.3 0 28.6 9.6 33.8 23.6C87.2 37.2 91 42.2 91 48s-3.8 10.8-9.2 12.4C76.6 74.4 63.3 84 48 84s-28.6-9.6-33.8-23.6C8.8 58.8 5 53.8 5 48s3.8-10.8 9.2-12.4C19.4 21.6 32.7 12 48 12zm0 6c-13.2 0-24.7 8.6-28.6 21-.3 1.1-1.3 1.9-2.4 2.1-3.4.5-6 3.4-6 6.9s2.6 6.4 6 6.9c1.1.2 2.1 1 2.4 2.1C23.3 69.4 34.8 78 48 78s24.7-8.6 28.6-21c.3-1.1 1.3-1.9 2.4-2.1 3.4-.5 6-3.4 6-6.9s-2.6-6.4-6-6.9c-1.1-.2-2.1-1-2.4-2.1-2.1-6.7-6.4-12.3-12.1-16-1.6 6.5-7.3 9.3-16 8-1.6-.3-2.8-1.8-2.5-3.4.3-1.6 1.8-2.8 3.4-2.5 6.5 1 9.2-.5 9.5-5C55.5 18.7 51.8 18 48 18zM34.2 59.9c1.1-1.3 3-1.4 4.2-.4 2.7 2.2 6 3.5 9.6 3.5 3.6 0 6.9-1.2 9.6-3.5 1.3-1.1 3.2-.9 4.2.4 1.1 1.3.9 3.2-.4 4.2C57.7 67.3 53 69 48 69s-9.7-1.7-13.4-4.8c-1.3-1.1-1.5-3-.4-4.3zM36 38c2.2 0 4 1.8 4 4v4c0 2.2-1.8 4-4 4s-4-1.8-4-4v-4c0-2.2 1.8-4 4-4zm24 0c2.2 0 4 1.8 4 4v4c0 2.2-1.8 4-4 4s-4-1.8-4-4v-4c0-2.2 1.8-4 4-4z"/>
</svg>
