<?xml version="1.0" encoding="UTF-8"?>
<svg id="_图层_1" xmlns="http://www.w3.org/2000/svg" xmlns:xlink="http://www.w3.org/1999/xlink" version="1.1" viewBox="0 0 96 96">
  <!-- Generator: Adobe Illustrator 29.2.1, SVG Export Plug-In . SVG Version: 2.1.0 Build 116)  -->
  <defs>
    <style>
      .st0 {
        fill: #231815;
        fill-rule: evenodd;
      }
    </style>
  </defs>
  <path class="st0" d="M94.8,48C94.8,22.2,73.8,1.2,48,1.2S1.2,22.2,1.2,48s21,46.8,46.8,46.8,46.8-21,46.8-46.8ZM9.5,48c0-21.3,17.2-38.5,38.5-38.5s38.5,17.2,38.5,38.5-17.2,38.5-38.5,38.5S9.5,69.3,9.5,48ZM31.4,52.1c-2.3,0-4.1-1.9-4.1-4.1s1.9-4.1,4.1-4.1h33.1c2.3,0,4.1,1.9,4.1,4.1s-1.9,4.1-4.1,4.1h-12.4s-20.7,0-20.7,0Z"/>
</svg>