<svg xmlns="http://www.w3.org/2000/svg" viewBox="0 0 96 96">
    <path d="M20.7 18.2c2.1-5.9 9.3-8.3 15.8-6L74.1 26H77c6.1 0 11 4.9 11 11v11c0 1.7-1.3 3-3 3-3.3 0-6 2.7-6 6s2.7 6 6 6c1.7 0 3 1.3 3 3v11c0 6.1-4.9 11-11 11H19c-6.1 0-11-4.9-11-11V66c0-1.7 1.3-3 3-3 3.3 0 6-2.7 6-6s-2.7-6-6-6c-1.7 0-3-1.3-3-3V37c0-5.7 4.3-10.4 9.8-10.9l2.9-7.9zM77 32H19c-2.8 0-5 2.2-5 5v8.4c5.2 1.3 9 6 9 11.6s-3.8 10.3-9 11.6V77c0 2.8 2.2 5 5 5h58c2.8 0 5-2.2 5-5v-8.4c-5.2-1.3-9-6-9-11.6s3.8-10.3 9-11.6V37c0-2.8-2.2-5-5-5zM60 60.6c1.7 0 3 1.3 3 3s-1.3 3-3 3H36c-1.7 0-3-1.3-3-3s1.3-3 3-3h24zm0-14c1.7 0 3 1.3 3 3s-1.3 3-3 3H36c-1.7 0-3-1.3-3-3s1.3-3 3-3h24zM34.4 17.9c-3.7-1.3-7.2-.1-8.1 2.4L24.2 26h32.4l-22.2-8.1z"/>
</svg>
