<svg xmlns="http://www.w3.org/2000/svg" viewBox="0 0 96 96">
    <path d="M68 16h7c6.1 0 11 4.9 11 11v48c0 6.1-4.9 11-11 11H21c-6.1 0-11-4.9-11-11V27c0-6.1 4.9-11 11-11h7v-3c0-1.7 1.3-3 3-3s3 1.3 3 3v3h28v-3c0-1.7 1.3-3 3-3s3 1.3 3 3v3zm0 6v3c0 1.7-1.3 3-3 3s-3-1.3-3-3v-3H34v3c0 1.7-1.3 3-3 3s-3-1.3-3-3v-3h-7c-2.8 0-5 2.2-5 5v48c0 2.8 2.2 5 5 5h54c2.8 0 5-2.2 5-5V27c0-2.8-2.2-5-5-5h-7zm-1 21c1.7 0 3 1.3 3 3s-1.3 3-3 3H29c-1.7 0-3-1.3-3-3s1.3-3 3-3h38zM55 58c1.7 0 3 1.3 3 3s-1.3 3-3 3H29c-1.7 0-3-1.3-3-3s1.3-3 3-3h26z"/>
</svg>
