<svg xmlns="http://www.w3.org/2000/svg" viewBox="0 0 96 96">
  <path d="M65 10c1.7 0 3 1.3 3 3v3h7c6.1 0 11 4.9 11 11v48c0 6.1-4.9 11-11 11H21c-6.1 0-11-4.9-11-11V27c0-6.1 4.9-11 11-11h7v-3c0-1.7 1.3-3 3-3s3 1.3 3 3v3h28v-3c0-1.7 1.3-3 3-3zM28 22h-7c-2.8 0-5 2.2-5 5v48c0 2.8 2.2 5 5 5h54c2.8 0 5-2.2 5-5V27c0-2.8-2.2-5-5-5h-7v3c0 1.7-1.3 3-3 3s-3-1.3-3-3v-3H34v3c0 1.7-1.3 3-3 3s-3-1.3-3-3v-3zm39.1 11.9c1.1 1.1 1.2 2.9.1 4.1l-.1.1-3.2 3.2c4 3 7.1 7 9 11.7-4 10-13.7 17-25.1 17-3.7 0-7.2-.7-10.5-2.1l-4.2 4.2c-1.2 1.2-3.1 1.2-4.2 0-1.1-1.1-1.2-2.9-.1-4.1l.1-.1 3-3c-4.1-3-7.3-7.1-9.2-11.8 4-10 13.7-17 25.1-17 3.8 0 7.4.8 10.7 2.2l4.3-4.3c1.3-1.3 3.1-1.3 4.3-.1zm-7.5 11.7L42 63.2c1.7.5 3.5.8 5.4.8h.4c7.7 0 14.7-4.2 18.3-10.8l.1-.2-.1-.2c-1.6-2.9-3.8-5.4-6.5-7.2zM47.8 42c-7.7 0-14.7 4.2-18.3 10.8l-.2.2.1.2c1.7 3 4 5.5 6.8 7.3l17.6-17.6c-1.8-.5-3.7-.9-5.7-.9h-.3z" />

</svg>
