<svg xmlns="http://www.w3.org/2000/svg" viewBox="0 0 96 96">
    <path d="m30.2 43.1 22.6 22.6c1.5 1.5 1 4-.9 4.9l-39.6 17c-2.5 1.1-5-1.5-3.9-3.9l17-39.6c.8-2 3.3-2.5 4.8-1zm-8.2 24-5.1 12 5.1-2.2v-9.8zm7.1-16.6L28 53.1v21.2l5-2.1V54.4l-3.9-3.9zm9.9 9.9v9.3l6.5-2.8-6.5-6.5zm50.2-7.3c.1.3.1.5 0 .8l-1.3 2.9c-.1.3-.1.5 0 .8l1.3 2.9c.2.5 0 1.1-.5 1.3-.3.1-.5.1-.8 0L85 60.6c-.3-.1-.5-.1-.8 0l-2.9 1.3c-.5.2-1.1 0-1.3-.5-.1-.3-.1-.5 0-.8l1.3-2.9c.1-.3.1-.5 0-.8L80 54c-.2-.5 0-1.1.5-1.3.3-.1.5-.1.8 0l2.9 1.3c.3.1.5.1.8 0l2.9-1.3c.5-.4 1.1-.1 1.3.4zm-14.6 0c1.5.7 2.1 2.5 1.3 4-.7 1.5-2.5 2.1-4 1.3-2.8-1.4-5.8-2-9.1-1.7-3 .3-5.2 1.5-6.9 3.7-1 1.3-2.9 1.6-4.2.6-1.3-1-1.6-2.9-.6-4.2 2.7-3.6 6.5-5.6 11.1-6.1 4.4-.3 8.6.5 12.4 2.4zm-9.8-21.4c1.1 1.1 1.2 2.9.1 4.1l-.1.2-17 17c-1.2 1.2-3.1 1.2-4.2 0-1.1-1.1-1.2-2.9-.1-4.1l.1-.1 17-17c1.1-1.2 3-1.2 4.2-.1zm-21.4-9.8c1.9 3.8 2.7 8 2.3 12.3-.4 4.6-2.5 8.4-6.1 11.1-1.3 1-3.2.7-4.2-.6-1-1.3-.7-3.2.6-4.2 2.2-1.7 3.4-3.9 3.7-6.9.3-3.2-.2-6.2-1.7-9.1-.7-1.5-.2-3.3 1.3-4 1.6-.7 3.4-.1 4.1 1.4zm32.5 18.7c.4 1.5-.5 3.1-2 3.6l-.2.1-3.9 1c-1.6.4-3.2-.5-3.7-2.1-.4-1.5.5-3.1 2-3.6l.2-.1 3.9-1c1.6-.4 3.2.5 3.7 2.1zm7.7-2.1c.4 1.5-.5 3.1-2 3.6l-.2.1-.4.1c-1.6.4-3.2-.5-3.7-2.1-.4-1.5.5-3.1 2-3.6l.2-.1.5-.1c1.5-.4 3.2.5 3.6 2.1zM55.9 20.6c1.5.4 2.5 2 2.2 3.5v.2l-1 3.9-.1.2c-.5 1.5-2.1 2.4-3.6 2-1.5-.4-2.5-2-2.2-3.5v-.2l1-3.9.1-.2c.5-1.5 2.1-2.4 3.6-2zm20.6-.1c.1.3.1.5 0 .8l-1.3 2.9c-.1.3-.1.5 0 .8l1.3 2.9c.2.5 0 1.1-.5 1.3-.3.1-.5.1-.8 0l-3-1.2c-.3-.1-.5-.1-.8 0l-2.9 1.3c-.5.2-1.1 0-1.3-.5-.1-.3-.1-.5 0-.8l1.3-2.9c.1-.3.1-.5 0-.8l-1.3-2.9c-.2-.5 0-1.1.5-1.3.3-.1.5-.1.8 0l2.9 1.3c.3.1.5.1.8 0l2.9-1.3c.6-.3 1.2-.1 1.4.4zM58 12.9c1.5.4 2.5 2 2.2 3.5v.2l-.2.5-.1.2c-.5 1.5-2.1 2.4-3.6 2-1.5-.4-2.5-2-2.2-3.5v-.2l.1-.5.1-.2c.5-1.5 2.1-2.4 3.7-2zM36 7.3l2.9 1.3c.3.1.5.1.8 0l2.9-1.3c.5-.2 1.1 0 1.3.5.1.3.1.5 0 .8l-1.3 2.9c-.1.3-.1.5 0 .8l1.3 2.9c.2.5 0 1.1-.5 1.3-.3.1-.5.1-.8 0l-2.9-1.3c-.3-.1-.5-.1-.8 0L36 16.6c-.5.2-1.1 0-1.3-.5-.1-.3-.1-.5 0-.8l1.3-2.9c.1-.3.1-.5 0-.8l-1.3-2.9c-.2-.5 0-1.1.5-1.3.2-.2.5-.2.8-.1z"/>
</svg>
