<svg xmlns="http://www.w3.org/2000/svg" viewBox="0 0 96 96">
    <path d="M19 13h58c6.1 0 11 4.9 11 11v48c0 6.1-4.9 11-11 11H19c-6.1 0-11-4.9-11-11V24c0-6.1 4.9-11 11-11zm0 6c-2.8 0-5 2.2-5 5v48c0 2.8 2.2 5 5 5h58c2.8 0 5-2.2 5-5V24c0-2.8-2.2-5-5-5H19zm15 26.9 2.1-6.8a3.037 3.037 0 0 1 5.8 1.8l-5 16c-.9 2.8-4.8 2.8-5.7 0l-5-16a3.037 3.037 0 0 1 5.8-1.8l2 6.8zM45 40c0-1.7 1.3-3 3-3s3 1.3 3 3v16c0 1.7-1.3 3-3 3s-3-1.3-3-3V40zm15 11v5c0 1.7-1.3 3-3 3s-3-1.3-3-3V40c0-1.7 1.3-3 3-3h6c3.9 0 7 3.1 7 7s-3.1 7-7 7h-3zm0-6h3c.6 0 1-.4 1-1s-.4-1-1-1h-3v2z"/>
</svg>
