<svg width="96px" height="96px" viewBox="0 0 96 96" version="1.1" xmlns="http://www.w3.org/2000/svg" xmlns:xlink="http://www.w3.org/1999/xlink">
    <title>clock</title>
    <g id="clock" stroke="none" stroke-width="1" fill-rule="evenodd">
        <g id="闹钟3" fill-rule="nonzero">
            <path d="M48.2793592,21.078027 C36.3457422,21.078027 25.3188133,27.3257467 19.3506715,37.4666253 C13.3829962,47.5785328 13.3829962,60.1345808 19.3506715,70.2464884 C25.3161466,80.3873669 36.3457421,86.6350867 48.2793592,86.6350867 C66.725131,86.6350867 81.6801532,71.9584116 81.6801532,53.8552236 C81.6801532,35.7547021 66.725131,21.078027 48.2793592,21.078027 Z M5.33167153,53.8552236 C5.33167153,38.8025654 13.5185328,24.8885227 26.804182,17.3581938 C40.1301619,9.82969089 56.4258897,9.82969089 69.7518696,17.3581938 C83.0401855,24.8885227 91.2243801,38.7998988 91.2243801,53.8552236 C91.2270468,77.1341795 71.9999231,96 48.2793592,96 C24.5587953,96 5.33167153,77.1315129 5.33167153,53.8552236 Z M68.5438409,1.60690026 C70.2956625,-0.34842414 73.2887475,-0.546212349 75.2826678,1.16158697 L94.3684548,17.5528518 C96.352502,19.2541088 96.5551735,22.2139761 94.821799,24.1605554 C93.0857577,26.1071348 90.069686,26.3071259 88.0856388,24.6032022 L68.997185,8.21727051 C68.0458139,7.410537 67.4609869,6.25350049 67.3756111,5.00910757 C67.2902352,3.76471465 67.7115619,2.538657 68.5438409,1.60956686 L68.5438409,1.60690026 Z" id="形状"></path>
            <path d="M27.3961961,1.57756831 C26.5507039,0.651891508 25.3781827,0.0914916282 24.1267851,0.0149717197 C22.8680885,-0.0650246562 21.6227256,0.337623925 20.6733696,1.14292109 L1.62491677,17.2301996 C0.678750063,18.0144232 0.0953362242,19.152116 0.0106780078,20.3780643 C-0.0739802085,21.6040126 0.34751483,22.8110901 1.17690614,23.7179086 C2.94212272,25.6326071 5.89987837,25.8239091 7.89706584,24.1525558 L26.942852,8.06261079 C27.8904547,7.27959477 28.4753859,6.14219463 28.5610705,4.91598053 C28.6467551,3.68976642 28.2256925,2.48207972 27.3961961,1.57490171 L27.3961961,1.57756831 Z M47.6180101,29.8882985 C50.2474059,29.8882985 52.38079,31.9468728 52.3807901,34.4854256 L52.3807901,50.4153778 L64.5464125,58.24436 C66.7331312,59.6549634 67.3251453,62.5108354 65.866444,64.6200741 C64.4050759,66.734646 61.4476722,67.3026204 59.2609536,65.8946836 L44.9752806,56.7004292 C43.6635603,55.8689976 42.865559,54.426865 42.8578969,52.8739343 L42.8578969,34.4854256 C42.8578969,31.9468728 44.991281,29.8882985 47.6180101,29.8882985 L47.6180101,29.8882985 Z" id="形状"></path>
        </g>
    </g>
</svg>