<svg xmlns="http://www.w3.org/2000/svg" viewBox="0 0 96 96">
  <path d="M77 12c6.1 0 11 4.9 11 11v50c0 6.1-4.9 11-11 11H19c-6.1 0-11-4.9-11-11V23c0-6.1 4.9-11 11-11h58zm5 26H14v35c0 2.8 2.2 5 5 5h58c2.8 0 5-2.2 5-5V38zm-47.9 9c1.3-1.1 3.2-.9 4.2.4l.1.2c.9 1.3.7 3.1-.5 4.1l-8.1 6.7 8.1 6.7c1.3 1.1 1.5 2.9.4 4.2-1.1 1.3-2.9 1.5-4.2.4L24.7 62c-2.3-1.9-2.3-5.3 0-7.2l9.4-7.8zm27.8 0 9.4 7.7c2.3 1.9 2.3 5.3 0 7.2l-9.4 7.7c-1.3 1.1-3.2.9-4.2-.4-1.1-1.3-.9-3.2.4-4.2l8.1-6.7-8.1-6.7c-1.2-1-1.4-2.8-.5-4.1l.1-.2c1-1.1 2.9-1.3 4.2-.3zm-12.6-1c1.6.2 2.8 1.7 2.7 3.3l-2 18c-.2 1.6-1.7 2.8-3.3 2.7s-2.8-1.7-2.7-3.3l2-18c.2-1.7 1.7-2.9 3.3-2.7zM77 18H19c-2.8 0-5 2.2-5 5v9h68v-9c0-2.8-2.2-5-5-5z"/>
</svg>
