<svg xmlns="http://www.w3.org/2000/svg" viewBox="0 0 96 96">
    <path d="M72.7073631,5.75000511 C78.1549289,5.74528664 83.0742826,9.00745342 85.1900403,14.0276371 C85.8948003,15.69715 86.2552814,17.491766 86.2499415,19.3039425 L86.2499415,19.3039425 L86.2499415,72.7076972 C86.2574872,76.3013089 84.8335085,79.7499542 82.2927562,82.2912126 C79.752004,84.8324709 76.30375,86.2570289 72.7103284,86.2499739 L72.7103284,86.2499739 L19.3106719,86.2499739 C15.7154455,86.2565832 12.2652823,84.8325577 9.72127438,82.2920051 C7.17726641,79.7514526 5.74844509,76.3031206 5.75000127,72.7076972 L5.75000127,72.7076972 L5.75000127,19.3039425 C5.75119388,15.7086377 7.18052058,12.2610672 9.72353441,9.71968758 C12.2665482,7.17830796 15.7149294,5.75130517 19.3100429,5.75261617 L19.3100429,5.75261617 L19.3298111,5.75261617 L23.0266315,5.77831611 C24.6131629,5.78380004 25.8948553,7.0744518 25.8893716,8.6610675 C25.883888,10.2476832 24.5933049,11.5294438 23.0067736,11.5239599 L23.0067736,11.5239599 L22.9861069,11.5239599 L19.301327,11.4970019 C14.9918955,11.5014108 11.4996221,14.9941916 11.4956103,19.3038526 L11.4956103,19.3038526 L11.4956103,28.7580156 L11.5063929,28.7608911 L80.5045436,28.763497 L80.5045436,19.3039425 C80.5045436,17.2185632 79.6989023,15.2569209 78.2265359,13.7787251 C76.7682307,12.3094426 74.7823756,11.4852598 72.7123052,11.4901725 L72.7123052,11.4901725 L69.1070471,11.4901725 C68.0745466,11.5022056 67.1152363,10.9584099 66.5952019,10.0663051 C66.0751675,9.17420028 66.0746493,8.07143661 66.5938452,7.17884351 C67.1130411,6.28625041 68.0718401,5.7415534 69.1043514,5.75261617 L69.1043514,5.75261617 Z M11.5057639,34.5065348 L11.4953407,34.5065348 L11.4953407,72.7074276 C11.4953407,74.7927171 12.3114052,76.748159 13.786018,78.2225806 C15.2490861,79.6903008 17.2383582,80.511885 19.3106719,80.5043559 L19.3106719,80.5043559 L72.7103284,80.5043559 C74.7793853,80.5117848 76.765228,79.6901425 78.2241997,78.2229401 C79.6911159,76.7632067 80.51239,74.7770339 80.5045993,72.707787 L80.5045993,72.707787 L80.5045993,34.5092306 L11.5057639,34.5065348 Z M58.4614693,40.7118869 C59.5546657,40.7118869 60.5530714,41.3245001 61.0368322,42.2922131 C61.5205931,43.2599261 61.4057948,44.4148362 60.7407128,45.2712753 C60.7274186,45.2883885 60.0256309,46.1993573 58.9856823,47.7491127 L58.7297813,48.1331881 C57.725314,49.6514905 56.458349,51.6931907 55.2016858,54.0596693 C53.6194018,57.0394983 52.3623775,59.9441355 51.4661841,62.6930689 C50.3757869,66.034315 49.8241658,69.1368627 49.8241658,71.9152344 C49.8241658,73.4808322 48.538446,74.75 46.9524304,74.75 C45.3664147,74.75 44.0806949,73.4808322 44.0806949,71.9152344 C44.0806949,68.5292102 44.7325618,64.8218476 46.0182405,60.8964465 C47.0234827,57.8278593 48.4188389,54.6096865 50.1655942,51.3318392 C51.1643689,49.4580742 52.1601793,47.7838157 53.0464021,46.3814181 L53.0464021,46.3814181 L35.4550688,46.3814181 C33.8690531,46.3814181 32.5833333,45.1122503 32.5833333,43.5466525 C32.5833333,41.9810547 33.8690531,40.7118869 35.4550688,40.7118869 L35.4550688,40.7118869 Z M38.3268042,3.83333333 C39.9128199,3.83333333 41.1985397,5.10250112 41.1985397,6.66809892 L41.1985397,6.66809892 L41.1985397,12.3427729 C41.1985397,13.0945995 40.8959827,13.8156332 40.3574278,14.3472549 C39.818873,14.8788766 39.0884358,15.1775385 38.3268042,15.1775385 C36.7407885,15.1775385 35.4550688,13.9083707 35.4550688,12.3427729 L35.4550688,12.3427729 L35.4550688,6.66809892 C35.4550688,5.10250112 36.7407885,3.83333333 38.3268042,3.83333333 Z M55.5897339,3.83333333 C57.1757496,3.83333333 58.4614693,5.10250112 58.4614693,6.66809892 L58.4614693,6.66809892 L58.4614693,12.3427729 C58.4614693,13.0945995 58.1589123,13.8156332 57.6203575,14.3472549 C57.0818026,14.8788766 56.3513655,15.1775385 55.5897339,15.1775385 C54.0037182,15.1775385 52.7179984,13.9083707 52.7179984,12.3427729 L52.7179984,12.3427729 L52.7179984,6.66809892 C52.7179984,5.10250112 54.0037182,3.83333333 55.5897339,3.83333333 Z" id="形状结合"></path>
</svg>
