<svg xmlns="http://www.w3.org/2000/svg" viewBox="0 0 96 96">
    <path d="M84 81c1.7 0 3 1.3 3 3s-1.3 3-3 3H12c-1.7 0-3-1.3-3-3s1.3-3 3-3h72zm-5.6-68.8 1.4 1.4c4.3 4.3 4.3 11.3 0 15.6L39.3 69.7c-2 2-4.6 3.4-7.3 4l-14.3 3.2c-2.2.5-4.2-1.6-3.5-3.8l4.1-13.8c.7-2.4 2-4.6 3.8-6.4l40.8-40.8c4.2-4.2 11.2-4.2 15.5.1zM59.7 23.8 26.2 57.3c-1.1 1.1-1.8 2.4-2.3 3.8L21.3 70l9.3-2.1c1.7-.4 3.2-1.2 4.4-2.4l33.1-33.1-8.4-8.6zm7.3-7.3-3.1 3.1 8.5 8.5 3.1-3.1c2-2 2-5.1 0-7.1l-1.4-1.4c-1.9-2-5.1-2-7.1 0z"/>
</svg>
