<svg xmlns="http://www.w3.org/2000/svg" viewBox="0 0 96 96">
<path d="M21.8,17.6l56.6,56.6l-4.2,4.2L17.6,21.8L21.8,17.6z M20.5,30.4l10.8,10.8C30.5,43.3,30,45.6,30,48
	c0,9.9,8.1,18,18,18c2.4,0,4.7-0.5,6.8-1.3l9.3,9.3C59,76.7,53.6,78,48,78c-14.7,0-27.8-9.3-39.2-27.3c-1-1.6-1-3.7,0-5.3
	C12.5,39.4,16.5,34.5,20.5,30.4z M48,18c14.7,0,27.8,9.3,39.2,27.3c1,1.6,1,3.7,0,5.3c-3.8,5.9-7.7,10.9-11.8,14.9L64.7,54.8
	c0.9-2.1,1.3-4.4,1.3-6.8c0-9.9-8.1-18-18-18c-2.4,0-4.7,0.5-6.8,1.3L31.9,22C37,19.3,42.4,18,48,18z M38,47.9L48.1,58L48,58
	c-5.4,0-9.8-4.3-10-9.7L38,47.9L38,47.9z M48,38c5.5,0,10,4.5,10,10c0,0,0,0.1,0,0.1L48,38L48,38z"/>
</svg>
