<?xml version="1.0" encoding="UTF-8"?>
<svg id="_图层_1" data-name="图层_1" xmlns="http://www.w3.org/2000/svg" xmlns:xlink="http://www.w3.org/1999/xlink" version="1.1" viewBox="0 0 96 96">
  <!-- Generator: Adobe Illustrator 29.2.1, SVG Export Plug-In . SVG Version: 2.1.0 Build 116)  -->
  <defs>
    <style>
      .st0 {
        fill: #030b1a;
        fill-rule: evenodd;
      }
    </style>
  </defs>
  <path class="st0" d="M38.2,13.9c0,0,0,.1,0,.2v3.3h20.8v-3.3c0,0,0-.1,0-.2,0-2.2,1.8-4,4-4s4,1.8,4,4,0,.1,0,.2v3.3c5.4,0,10.1,2,13.9,5.9,3.9,3.9,5.9,8.6,5.9,14.1v28.8c0,5.5-2,10.2-5.9,14.1-3.9,3.9-8.6,5.9-14.1,5.9H30.4c-5.5,0-10.2-2-14.1-5.9-3.9-3.9-5.9-8.6-5.9-14.1v-28.8c0-5.5,2-10.2,5.9-14.1,3.9-3.9,8.5-5.8,13.9-5.9v-3.3c0,0,0-.1,0-.2,0-2.2,1.8-4,4-4s4,1.8,4,4ZM30.2,25.4c-3.2,0-6,1.2-8.3,3.5-2.3,2.3-3.5,5.2-3.5,8.5v1.4h60.4v-1.4c0-3.3-1.2-6.1-3.5-8.5-2.3-2.3-5-3.5-8.3-3.5v2.4c0,0,0,.1,0,.2,0,2.2-1.8,4-4,4s-4-1.8-4-4,0-.1,0-.2v-2.4h-20.8v2.4c0,0,0,.1,0,.2,0,2.2-1.8,4-4,4s-4-1.8-4-4,0-.1,0-.2v-2.4ZM78.8,46.8H18.4v19.4c0,3.3,1.2,6.1,3.5,8.5,2.3,2.3,5.2,3.5,8.5,3.5h36.4c3.3,0,6.1-1.2,8.5-3.5,2.3-2.3,3.5-5.2,3.5-8.5v-19.4ZM32.9,63.4c0,0,.1,0,.2,0h19.4c0,0,.1,0,.2,0,2.2,0,4-1.8,4-4s-1.8-4-4-4-.1,0-.2,0h-19.4c0,0-.1,0-.2,0-2.2,0-4,1.8-4,4s1.8,4,4,4Z"/>
</svg>