<svg xmlns="http://www.w3.org/2000/svg" viewBox="0 0 96 96">
    <path d="m33 59.4-11.6-9.9c-1.6-1.3-2.4-3.3-2.4-5.3V30c0-3.9 3.1-7 7-7h44c3.9 0 7 3.1 7 7v14.2c0 2-.9 4-2.4 5.3L63 59.4V84c0 3.9-3.1 7-7 7H40c-3.9 0-7-3.1-7-7V59.4zM26 29c-.6 0-1 .4-1 1v14.2c0 .3.1.6.3.8l11.9 10.2c1.1.9 1.7 2.3 1.7 3.8v25c0 .6.4 1 1 1h16c.6 0 1-.4 1-1V58.9c0-1.5.6-2.8 1.7-3.8l11.9-10.2c.2-.2.3-.5.3-.8V30c0-.6-.4-1-1-1H26zm19 30c0-1.7 1.3-3 3-3s3 1.3 3 3v8c0 1.7-1.3 3-3 3s-3-1.3-3-3v-8zm0-51c0-1.7 1.3-3 3-3s3 1.3 3 3v8c0 1.7-1.3 3-3 3s-3-1.3-3-3V8zm24.4 1c.8-1.4 2.7-1.9 4.1-1.1s1.9 2.7 1.1 4.1l-4 6.9c-.8 1.4-2.7 1.9-4.1 1.1-1.4-.8-1.9-2.7-1.1-4.1l4-6.9zM26.6 9l4 6.9c.8 1.4.3 3.3-1.1 4.1-1.4.8-3.3.3-4.1-1.1l-4-6.9c-.8-1.4-.3-3.3 1.1-4.1s3.3-.3 4.1 1.1z"/>
</svg>
