<svg xmlns="http://www.w3.org/2000/svg" viewBox="0 0 96 96">
    <path d="M77 8c6.1 0 11 4.9 11 11v14c0 6.1-4.9 11-11 11h-2v41c0 2.5-2.8 3.9-4.8 2.4L64 82.8 58.4 87c-1.4 1-3.4 1-4.8-.1L48 82.8 42.4 87c-1.4 1-3.4 1-4.8-.1L32 82.8l-6.2 4.7c-2 1.5-4.8.1-4.8-2.4V44h-2c-6 0-10.8-4.8-11-10.7V19c0-6.1 4.9-11 11-11h58zm-9 20H28c-.6 0-1 .4-1 1v50l2.6-1.9c1.4-1.1 3.4-1.1 4.8 0l5.6 4.2 5.6-4.2c1.4-1.1 3.4-1.1 4.8 0l5.6 4.2 5.6-4.2c1.4-1.1 3.4-1.1 4.8 0L69 79V29c0-.6-.4-1-1-1zM51 55.2c1.7 0 3 1.3 3 3s-1.3 3-3 3H39c-1.7 0-3-1.3-3-3s1.3-3 3-3h12zm6-13c1.7 0 3 1.3 3 3s-1.3 3-3 3H39c-1.7 0-3-1.3-3-3s1.3-3 3-3h18zM77 14H19c-2.8 0-5 2.2-5 5v14c0 2.8 2.2 5 5 5h2v-9c0-3.9 3.1-7 7-7h40c3.9 0 7 3.1 7 7v9h2c2.7 0 4.9-2.1 5-4.8V19c0-2.8-2.2-5-5-5z"/>
</svg>
