<svg xmlns="http://www.w3.org/2000/svg" viewBox="0 0 96 96">
    <path d="M67 22c4.4 0 8 3.6 8 8v55c0 2.5-2.8 3.9-4.8 2.4L64 82.8 58.4 87c-1.4 1-3.4 1-4.8-.1L48 82.8 42.4 87c-1.4 1-3.4 1-4.8-.1L32 82.8l-6.2 4.7c-2 1.5-4.8.1-4.8-2.4V30c0-4.4 3.6-8 8-8h38zM51 55.2H39c-1.7 0-3 1.3-3 3s1.3 3 3 3h12c1.7 0 3-1.3 3-3 0-1.6-1.3-3-3-3zm6-13H39c-1.7 0-3 1.3-3 3s1.3 3 3 3h18c1.7 0 3-1.3 3-3 0-1.6-1.3-3-3-3zM78 8c5.5 0 10 4.5 10 10v20c0 3.3-2.7 6-6 6h-3V28c0-5.4-4.3-9.8-9.7-10H27c-5.4 0-9.8 4.3-10 9.7V44h-3c-3.3 0-6-2.7-6-6V18c0-5.5 4.5-10 10-10h60z"/>
</svg>
