<?xml version="1.0" encoding="utf-8"?>
<!-- Generator: Adobe Illustrator 27.7.0, SVG Export Plug-In . SVG Version: 6.00 Build 0)  -->
<svg version="1.1" id="图层_1" xmlns="http://www.w3.org/2000/svg" xmlns:xlink="http://www.w3.org/1999/xlink" x="0px" y="0px"
	 viewBox="0 0 96 96" style="enable-background:new 0 0 96 96;" xml:space="preserve">
<path id="形状结合" d="M80,49.3v27c0,6.1-4.9,11-11,11H52v-38H80z M46,87.3H29c-6.1,0-11-4.9-11-11v-27h28V87.3z M52.4,14.8
	c2.6-4.5,8.4-6.1,13-3.5s6.1,8.4,3.5,13l-1.8,3.1l13.9,0c3.8,0,6.9,3,7,6.8l0,0.2v4c0,3.9-3.1,7-7,7H17c-3.9,0-7-3.1-7-7v-4
	c0-3.9,3.1-7,7-7l13.3,0l-1.8-3.1c-2.6-4.5-1.1-10.4,3.5-13s10.4-1.1,13,3.5l3.7,6.4L52.4,14.8z M35,16.5c-1.7,1-2.2,3.1-1.3,4.8
	l3.5,6.1h7.9l0.1-0.2l-5.4-9.4C38.8,16.1,36.7,15.5,35,16.5z M62.4,16.5c-1.7-1-3.8-0.4-4.8,1.3l-5.4,9.4l0.1,0.2h7.9l3.5-6.1
	c0.9-1.6,0.4-3.7-1.1-4.7L62.4,16.5z"/>
</svg>
