<svg xmlns="http://www.w3.org/2000/svg" viewBox="0 0 96 96">
    <path d="M36 55.5c-1.4 1.5-3.5 3.2-6 5-1.4.9-3.2.6-4.2-.8s-.6-3.2.8-4.2c2.2-1.6 3.9-2.9 4.9-4-2.1-.4-4-1.1-5.4-1.9-5.4-3.3-5.3-10.5-.4-13.5 3.2-2 6.8-1.4 10.4 1.4V19H19c-2.8 0-5 2.2-5 5v48c0 2.8 2.2 5 5 5h17V55.5zm6-1.2V77h35c2.8 0 5-2.2 5-5V24c0-2.8-2.2-5-5-5H42v17.6c3.7-2.2 7.8-1.7 10.7 1.2l.2.2.1.2c2.2 3.1 2.1 6.5-.3 9.1-1.3 1.5-3.3 2.6-5.8 3.4 1.9 1.4 4.3 2.7 7.1 3.8 1.5.6 2.3 2.4 1.7 3.9-.6 1.5-2.4 2.3-3.9 1.7-3.9-1.7-7.2-3.6-9.8-5.8zm0-9.4c.1.2.3.5.4.7.3-.1.7-.1 1-.2 2.4-.6 4.2-1.4 4.9-2.2.4-.4.4-.6 0-1.3-1.6-1.4-3.9-.6-6.3 2.7v.3zM19 13h58c6.1 0 11 4.9 11 11v48c0 6.1-4.9 11-11 11H19c-6.1 0-11-4.9-11-11V24c0-6.1 4.9-11 11-11zm10.2 31.5c1.2.7 3.1 1.2 5.2 1.4.2-.3.3-.7.5-1-2.7-3.6-4.9-4.5-6.1-3.7-1.1.7-1.1 2.4.4 3.3z"/>
</svg>
