<svg xmlns="http://www.w3.org/2000/svg" viewBox="0 0 96 96">
    <path d="M36 13H22c-5 0-9 4-9 9v14c0 5 4 9 9 9h14c5 0 9-4 9-9V22c0-5-4-9-9-9zm-14 6h14c1.7 0 3 1.3 3 3v14c0 1.7-1.3 3-3 3H22c-1.7 0-3-1.3-3-3V22c0-1.7 1.3-3 3-3zm14 32H22c-5 0-9 4-9 9v14c0 5 4 9 9 9h14c5 0 9-4 9-9V60c0-5-4-9-9-9zm-14 6h14c1.7 0 3 1.3 3 3v14c0 1.7-1.3 3-3 3H22c-1.7 0-3-1.3-3-3V60c0-1.7 1.3-3 3-3zm52-44H60c-5 0-9 4-9 9v14c0 5 4 9 9 9h14c5 0 9-4 9-9V22c0-5-4-9-9-9zm-14 6h14c1.7 0 3 1.3 3 3v14c0 1.7-1.3 3-3 3H60c-1.7 0-3-1.3-3-3V22c0-1.7 1.3-3 3-3zm14 32H60c-5 0-9 4-9 9v14c0 5 4 9 9 9h14c5 0 9-4 9-9V60c0-5-4-9-9-9zm-14 6h14c1.7 0 3 1.3 3 3v14c0 1.7-1.3 3-3 3H60c-1.7 0-3-1.3-3-3V60c0-1.7 1.3-3 3-3z"/>
</svg>
