<svg xmlns="http://www.w3.org/2000/svg" viewBox="0 0 96 96">
    <path d="M33.4 11c5.6 0 9.4 2 14.6 6.4C53.2 13 57 11 62.6 11c11.8 0 19.9 7.2 23.3 19 .5 1.6-.5 3.3-2.1 3.7-1.6.5-3.3-.5-3.7-2.1C77.5 22.2 71.6 17 62.6 17c-3.9 0-6.6 1.4-11 5.2-.2.2-1.4 1.2-1.7 1.4-1.1 1-2.8 1-3.9 0-.3-.3-1.5-1.3-1.7-1.4-4.4-3.7-7.1-5.2-11-5.2C21.6 17 14 26.5 14 40.1c0 10.4 10.6 23.3 32.2 38.3 1 .7 2.4.7 3.5 0 4.4-3.1 7.4-5.3 8.8-6.4 1.3-1 3.2-.8 4.2.5s.8 3.2-.5 4.2c-1.5 1.2-4.5 3.4-9.1 6.6-3.1 2.2-7.3 2.2-10.4 0C19.7 67.4 8 53.1 8 40.1 8 23.4 17.9 11 33.4 11zm36.4 52.1c-.8 0-1.5-.3-2.1-.8L58.9 54l-.1-.1c-1.1-1.1-1-2.9.1-4l.1-.1c1.2-1.1 3-1.1 4.1 0l6.7 6.3 13.1-12.4c1.2-1.1 3-1.1 4.1 0l.1.1c1.1 1.1 1.2 2.8.1 4l-.1.1-15.2 14.4c-.6.5-1.4.8-2.1.8z"/>
</svg>
