<svg width="93px" height="86px">
    <g id="96x96" stroke="none" stroke-width="1">
        <g id="线" transform="translate(-2.000000, -5.000000)">
            <path d="M48.4689705,12.4256795 C54.5443999,7.27129148 58.9477672,5 65.4362591,5 C79.1842748,5 88.6026622,13.3604292 92.4831994,27.100344 C93.0065371,28.9533388 91.929203,30.8798969 90.0769064,31.4034318 C88.2246098,31.9269668 86.2987777,30.8492266 85.7754401,28.9962318 C82.6898681,18.0710704 75.820096,11.972973 65.4362591,11.972973 C60.9140859,11.972973 57.7726847,13.6350817 52.6848178,17.9931087 C52.4486475,18.195401 51.1163813,19.3453803 50.7300911,19.6748437 C49.4272868,20.7859938 47.5106542,20.7859938 46.2078499,19.6748437 C45.8215597,19.3453803 44.4892935,18.195401 44.2531233,17.9931087 C39.1652564,13.6350817 36.0238552,11.972973 31.5016819,11.972973 C17.7678524,11.972973 8.97034558,22.9805007 8.97034558,38.8587572 C8.97034558,50.9482761 21.3065579,65.9750892 46.3885146,83.3982162 C47.6043362,84.242784 49.2328653,84.2359926 50.4413056,83.3814294 C55.6085861,79.7273024 59.0452967,77.2332322 60.7098956,75.9318 C62.2264815,74.7460887 64.4167641,75.0147789 65.6020287,76.5319365 C66.7872933,78.0490941 66.5187042,80.2402023 65.0021183,81.4259136 C63.2209492,82.8184839 59.7223742,85.35745 54.4648434,89.0753989 C50.862337,91.6229551 46.0367572,91.6430789 42.4128841,89.1257633 C15.6074721,70.5054418 2,53.9300998 2,38.8587572 C2,19.42929 13.5322696,5 31.5016819,5 C37.9901739,5 42.3935411,7.27129148 48.4689705,12.4256795 Z M81.8846154,51.5833333 L91.4230769,51.5833333 C93.398557,51.5833333 95,53.1876463 95,55.1666667 C95,57.145687 93.398557,58.75 91.4230769,58.75 L81.8846154,58.75 L81.8846154,68.3055556 C81.8846154,70.2845759 80.2831724,71.8888889 78.3076923,71.8888889 C76.3322122,71.8888889 74.7307692,70.2845759 74.7307692,68.3055556 L74.7307692,58.75 L65.1923077,58.75 C63.2168276,58.75 61.6153846,57.145687 61.6153846,55.1666667 C61.6153846,53.1876463 63.2168276,51.5833333 65.1923077,51.5833333 L74.7307692,51.5833333 L74.7307692,42.0277778 C74.7307692,40.0487574 76.3322122,38.4444444 78.3076923,38.4444444 C80.2831724,38.4444444 81.8846154,40.0487574 81.8846154,42.0277778 L81.8846154,51.5833333 Z" id="形状"></path>
        </g>
    </g>
</svg>