<?xml version="1.0" encoding="utf-8"?>
<!-- Generator: Adobe Illustrator 27.7.0, SVG Export Plug-In . SVG Version: 6.00 Build 0)  -->
<svg version="1.1" id="图层_1" xmlns="http://www.w3.org/2000/svg" xmlns:xlink="http://www.w3.org/1999/xlink" x="0px" y="0px"
	 viewBox="0 0 96 96" style="enable-background:new 0 0 96 96;" xml:space="preserve">
<style type="text/css">
	.st0{fill:#3C3F44;}
</style>
<path id="形状" class="st0" d="M56.7,10.4l28.7,24.2l0.5,0.4c3.5,3.3,3.9,8.7,1,12.4c-0.3,0.4-0.7,0.8-1.2,1.1l-1,0.6
	c-2.1,1.5-3.4,3.9-3.4,6.6v14.8c0,7.8-5.3,13.8-12.7,13.8H29.5c-7.6,0-14.5-6.2-14.5-13.8V54c0-2-1.2-3.8-3-4.6
	c-1.1-0.5-1.9-1-2.6-1.9c-3-3.8-2.5-9.2,0.9-12.4l29-24.7C44.3,6.4,51.7,6.4,56.7,10.4z M44.1,16.3L15.6,40.7
	c-0.5,0.4-0.7,1.2-0.5,1.8c4.5,2,7.5,6.6,7.5,11.6v16.6c0,3.1,3.3,6.1,6.9,6.1h38.9c3.1,0,5.1-2.3,5.1-6.1V55.9
	c0-5.2,2.5-10,6.7-12.9l0.7-0.5l0.1-0.3c0.1-0.6-0.1-1.2-0.5-1.6L51.9,16.4C49.7,14.6,46.2,14.6,44.1,16.3L44.1,16.3z M48.1,44.3
	c3,0,6.7,2.2,11.9,6.6c3,2.5,4.7,6.2,4.7,10.1v3.7c0,1.4-0.7,2.6-1.9,3.3c-1.2,0.7-2.6,0.7-3.8,0c-1.2-0.7-1.9-1.9-1.9-3.3V61
	c0-1.6-0.7-3.2-2-4.2c-2.1-1.8-3.9-3.1-5.3-3.9c-0.4-0.2-0.8-0.5-1.3-0.7L48.3,52L48.1,52l-0.3,0.1l-0.7,0.4l-0.7,0.4
	c-1.4,0.8-3.2,2.2-5.4,4c-1.3,1-2,2.6-2,4.2v3.7c0,2.1-1.7,3.8-3.8,3.8s-3.8-1.7-3.8-3.8V61c0-3.9,1.7-7.6,4.8-10.1
	C41.6,46.5,45.2,44.3,48.1,44.3L48.1,44.3z"/>
</svg>
