<svg xmlns="http://www.w3.org/2000/svg" viewBox="0 0 96 96">
    <path d="M71 7c3.9 0 7 3.1 7 7v7.1c0 6-2.2 11.7-6.1 16.2L62.7 48l9.5 11c3.6 4.3 5.7 9.7 5.8 15.4V82c0 3.9-3.1 7-7 7H25c-3.9 0-7-3.1-7-7v-7.3c0-6 2.2-11.8 6.1-16.3L33.2 48l-9.1-10.4c-3.8-4.4-6-10-6.1-15.8V14c0-3.9 3.1-7 7-7h46zm0 6H25c-.6 0-1 .4-1 1v7.3c0 4.6 1.7 8.9 4.7 12.4L38 44.3c1.9 2.2 1.9 5.4 0 7.5l-9.3 10.6c-3 3.4-4.6 7.8-4.7 12.4V82c0 .6.4 1 1 1h46c.6 0 1-.4 1-1v-7.1c0-4.5-1.7-8.9-4.7-12.3L58 51.7c-1.9-2.2-1.9-5.4 0-7.5L67.6 33c2.8-3.4 4.4-7.6 4.4-12v-7c0-.6-.4-1-1-1zM60 72c1.7 0 3 1.3 3 3s-1.3 3-3 3H36c-1.7 0-3-1.3-3-3s1.3-3 3-3h24z"/>
</svg>
