<svg width="89px" height="80px" viewBox="0 0 89 80" >
    <g id="96x96" stroke="none" stroke-width="1">
        <g id="选座" transform="translate(-4.000000, -8.000000)" >
            <g transform="translate(4.000000, 8.000000)" id="形状">
                <path d="M70.2802298,80 L9.37008879,80 C5.92191435,80 0,73.9337143 0,70.3931429 L0,35.2022857 C0,31.6731428 2.79094464,28.8022858 6.2436831,28.8022858 L12.4873662,28.8022858 C15.9378227,28.8022858 18.7310493,31.6594287 18.7310493,35.2022857 L18.7310493,56.6811428 C18.7310493,58.9577143 20.572662,60.8022858 22.8455817,60.8022858 L66.1542871,60.8022858 C68.4272068,60.8022858 70.2688195,58.9577143 70.2688195,56.6811428 L70.2688195,35.2022857 C70.2688195,31.6731428 73.0597641,28.8022858 76.5125026,28.8022858 L82.7561857,28.8022858 C86.2066422,28.8022858 88.9999346,31.6594287 88.9999346,35.2022857 L88.9999346,70.4091428 C89.0226892,73.9382857 83.103057,80 79.6503184,80 L70.2802298,80 Z M64.0342645,32.0022857 L64.0342645,52.1097143 C64.0342645,53.3737143 63.0119071,54.4 61.7499347,54.4 L27.2681906,54.4 C26.0053296,54.4 24.9815786,53.3746042 24.9815786,52.1097143 L24.9815786,32 C24.9815786,26.6971429 20.7871745,22.3954286 15.6137719,22.3954286 C12.4828021,22.3954286 12.4828021,20.6354285 12.4828021,20.6354286 L12.4828021,9.60457146 C12.4873662,4.30400003 16.6817703,0 21.862019,0 L67.1538241,0 C72.3340729,0 76.5239129,4.30400003 76.5239129,9.60457146 L76.5239129,20.6377143 C76.5239129,20.6377143 76.5239129,22.3977143 73.4066353,22.3977143 C68.2309507,22.4 64.0365466,26.7040001 64.0365467,32.0045715 L64.0342645,32.0022857 Z"></path>
            </g>
        </g>
    </g>
</svg>