<svg xmlns="http://www.w3.org/2000/svg" viewBox="0 0 96 96">
  <path d="M20 66c3.3 0 6 2.7 6 6v4c0 3.3-2.7 6-6 6h-4c-3.3 0-6-2.7-6-6v-4c0-3.3 2.7-6 6-6h4zm63 5c1.7 0 3 1.3 3 3s-1.3 3-3 3H37c-1.7 0-3-1.3-3-3s1.3-3 3-3h46zm-63 1h-4v4h4v-4zm0-32c3.3 0 6 2.7 6 6v4c0 3.3-2.7 6-6 6h-4c-3.3 0-6-2.7-6-6v-4c0-3.3 2.7-6 6-6h4zm63 5c1.7 0 3 1.3 3 3s-1.3 3-3 3H37c-1.7 0-3-1.3-3-3s1.3-3 3-3h46zm-63 1h-4v4h4v-4zm0-32c3.3 0 6 2.7 6 6v4c0 3.3-2.7 6-6 6h-4c-3.3 0-6-2.7-6-6v-4c0-3.3 2.7-6 6-6h4zm63 5c1.7 0 3 1.3 3 3s-1.3 3-3 3H37c-1.7 0-3-1.3-3-3s1.3-3 3-3h46zm-63 1h-4v4h4v-4z" />
</svg>
