<?xml version="1.0" encoding="UTF-8"?>
<svg width="96px" height="96px" viewBox="0 0 96 96" version="1.1" xmlns="http://www.w3.org/2000/svg" xmlns:xlink="http://www.w3.org/1999/xlink">
    <title>maisuiyou</title>
    <g id="页面-1" stroke="none" stroke-width="1" fill="none" fill-rule="evenodd">
        <g id="maisuiyou" fill="#000000" fill-rule="nonzero">
            <path d="M62.787631,79.1434582 C72.1021657,79.5420662 76.4062897,82.7807564 75.060119,85.1368146 C73.7199851,87.4893137 64.2183145,93.4008131 48.2574396,94.9774502 C32.2965648,96.5576463 16.4926426,95.8351692 10.4680764,95.8351692 C4.44351009,95.8351692 -2.66765127,95.2550522 1.00866235,93.1125341 C4.69101238,90.9771339 15.6656231,85.4606836 29.6766633,82.3038504 C43.6816669,79.1434582 53.4730961,78.7448502 62.787631,79.1434582 L62.787631,79.1434582 Z M95.9529283,50.9810895 C95.3190812,53.7215197 91.13569,60.7078371 79.0744843,66.0214244 C69.5075708,70.2514975 58.5651017,73.2742253 46.929379,74.9011299 C38.2909479,76.14678 30.1173379,77.8373052 32.8217524,74.3886339 C35.5261669,70.9364036 44.6897857,62.3663311 57.9220995,56.3480618 C71.14234,50.3333515 78.1267318,49.6251104 84.0064188,48.7816274 C89.8921423,47.9345853 96.5867755,48.2371003 95.958965,50.9810895 L95.9529283,50.9810895 Z M91.8963066,22.6194167 C96.7497648,22.6194167 96.4237861,25.6694799 95.1198721,28.2853451 C93.8159579,30.9012103 88.2622496,38.6776257 78.6760662,43.411096 C72.2772283,46.5643702 64.1760581,49.2976824 54.3665189,51.6145915 C56.5578191,43.144171 61.248288,36.4852816 68.4318888,31.6343643 C79.2072903,24.3633268 87.0368118,22.6194167 91.8963066,22.6194167 Z M70.1161113,0.0197653717 C73.4316931,-0.185587391 76.4019024,1.23252983 76.7503781,3.18727552 L76.9495872,4.53969562 C77.4880341,8.87874453 76.5037044,13.2366549 74.0580369,17.3414194 C70.3334304,23.5554338 64.7495388,28.4775311 57.3063624,32.0970344 C55.8334222,28.7871641 54.9279264,26.039616 54.6019479,23.8472718 C54.1069434,20.5551966 54.1069434,17.5763134 57.3063624,10.059705 C58.7310092,6.71424477 61.8096955,3.69621262 66.554494,0.998490446 C67.5233324,0.447194506 68.7769881,0.102692519 70.1161113,0.0197653717 L70.1161113,0.0197653717 Z" id="形状"></path>
        </g>
    </g>
</svg>