<?xml version="1.0" encoding="UTF-8"?>
<svg width="97px" height="97px" viewBox="0 0 97 97" version="1.1" xmlns="http://www.w3.org/2000/svg" xmlns:xlink="http://www.w3.org/1999/xlink">
    <title>maisuizuo</title>
    <g id="页面-1" stroke="none" stroke-width="1" fill="none" fill-rule="evenodd">
        <g id="maisuizuo" transform="translate(0.854303, 0.610331)" fill="#000000" fill-rule="nonzero">
            <path d="M35.6026217,79.7288286 C26.6443132,80.1180711 22.5032083,83.2427238 23.7950399,85.5138998 C25.0808348,87.785076 34.2202412,93.4915844 49.5773414,95.0128439 C64.9344416,96.5376744 80.1345903,95.8413232 85.9297226,95.8413233 C91.7248548,95.8413234 98.5703546,95.2806713 95.0268728,93.216615 C91.4894276,91.1489878 80.9314211,85.8317217 67.4517022,82.7820607 C53.9780198,79.7288287 44.5609301,79.3431573 35.6026217,79.7288286 Z M0.0470712068,51.1534338 C0.680913788,53.9031281 4.86427482,60.9130631 16.9253936,66.2446133 C26.4922382,70.4889864 37.4346285,73.5219327 49.0702673,75.1543372 C57.7146729,76.4041982 65.8821873,78.1004383 63.1838288,74.6401086 C60.4794338,71.1762079 51.3098444,62.5771638 38.0836626,56.5385494 C24.8514442,50.503506 17.8791758,49.7928707 11.9934947,48.9465362 C6.10781355,48.0966307 -0.586771374,48.4001684 0.0410346815,51.1534338 L0.0470712068,51.1534338 Z M4.10970025,22.6923119 C-0.749759537,22.6923119 -0.423783376,25.7526859 0.880121433,28.3773941 C2.18402624,31.0021024 7.73769452,38.8048064 17.3298456,43.5542785 C23.7165641,46.7182126 31.8176761,49.4607648 41.6392177,51.7855064 C39.4418968,43.2864512 34.7574982,36.605051 27.573949,31.737735 C16.7865519,24.4456883 8.95708699,22.6958828 4.10970025,22.6958828 L4.10970025,22.6923119 Z M25.8837021,0.0198321896 C22.5681441,-0.186214779 19.5979563,1.23669646 19.2494831,3.19805028 L19.0563121,4.5550423 C18.5159344,8.90851323 19.4982005,13.281149 21.9418049,17.400043 C25.6663845,23.6350642 31.2562725,28.5738009 38.6933589,32.2055401 C40.1723249,28.8844806 41.0717778,26.1276443 41.3977539,23.9278888 C41.8927548,20.6246846 41.8927548,17.6357311 38.6933589,10.0937123 C37.2747588,6.73694263 34.1900582,3.70870787 29.4452937,1.0018659 C28.4764623,0.448706271 27.2228156,0.103039676 25.8837021,0.0198321896 L25.8837021,0.0198321896 Z" id="形状"></path>
        </g>
    </g>
</svg>