<svg xmlns="http://www.w3.org/2000/svg" viewBox="0 0 96 96">
  <path d="M8 44c0-1.7 1.3-3 3-3s3 1.4 3 3v29.7c0 .6.4 1 1 1 .2 0 .3 0 .5-.1L30 66.7c2.1-1.2 4.7-1.1 6.8.1l23.7 14c.3.2.6.2.9 0l20-10.1c.3-.2.6-.5.6-.9V44c0-1.7 1.3-3 3-3s3 1.4 3 3v25.8c0 2.7-1.5 5.1-3.9 6.3l-20 10.1c-2.1 1.1-4.6 1-6.6-.2L33.8 72c-.3-.2-.7-.2-1 0l-14.5 7.9c-1 .6-2.2.8-3.3.8-3.9 0-7-3.2-7-7.1V44zm63-12.4c0 8.2-6.9 18.1-20.3 30-1.5 1.3-3.8 1.3-5.3 0C31.9 49.7 25 39.9 25 31.6 25 19.1 35.3 9 48 9s23 10.1 23 22.6zm-40 0c0 5.8 5.6 14 17 24.3 11.4-10.3 17-18.6 17-24.3C65 22.5 57.4 15 48 15s-17 7.5-17 16.6zM48 38c-3.3 0-6-2.7-6-6s2.7-6 6-6 6 2.7 6 6-2.7 6-6 6z"/>
</svg>
