<svg xmlns="http://www.w3.org/2000/svg" viewBox="0 0 96 96">
    <path d="M16.7 61.2c2.9 6.9 8 12.6 14.4 16.3V48.3L18 60.5c-.4.4-.8.6-1.3.7zm-1.9-5.9L34.4 37H15.8c-1.2 3.5-1.8 7.2-1.8 11 0 2.5.3 5 .8 7.3zM43.1 37c-.1.2-.3.4-.5.6L36.8 43c.2.4.3.8.3 1.2v7.5c.3.2.6.4.9.7l6.3 6.6h8.5l6.4-6.8v-9l-6.4-6.3c-.2 0-.5.1-.8.1h-8.9zm-6 43.2C40.5 81.4 44.2 82 48 82c3.1 0 6-.4 8.9-1.2L37.1 60v20.2zm25.8-1.6c6.1-3 11.2-7.7 14.6-13.6H50l12.4 13c.2.1.4.3.5.6zM80.2 59c1.2-3.4 1.8-7.1 1.8-11 0-3.4-.5-6.8-1.5-9.9L61 59h19.2zM18.6 31h28.2L33.7 18.1c-.2-.2-.4-.5-.6-.7C27 20.4 22 25.1 18.6 31zm20.6-15.9 20 19.6V15.9C55.7 14.7 51.9 14 48 14c-3 0-6 .4-8.8 1.1zm26 26.8v3.8l12.6-13.5.2-.2c-3-5.6-7.4-10.2-12.8-13.4v23.3zM48 88C25.9 88 8 70.1 8 48S25.9 8 48 8s40 17.9 40 40-17.9 40-40 40z"/>
</svg>
