<svg xmlns="http://www.w3.org/2000/svg" viewBox="0 0 96 96">
    <path d="M79.2 83c-2.9-1.9-7.3-1.8-13.5.9C60.2 86.6 54.2 88 48 88 25.9 88 8 70.1 8 48S25.9 8 48 8s40 17.9 40 40c0 6.3-1.4 12.3-4.2 17.8-.7 1.5-2.5 2.1-4 1.4-1.5-.7-2.1-2.5-1.4-4C80.8 58.5 82 53.3 82 48c0-18.8-15.2-34-34-34S14 29.2 14 48s15.2 34 34 34c5.3 0 10.5-1.2 15.1-3.5l.1-.1c7.9-3.4 14.5-3.7 19.3-.4 1.4.9 1.7 2.8.8 4.2-.9 1.4-2.7 1.7-4.1.8zM48 39c-3.3 0-6-2.7-6-6s2.7-6 6-6 6 2.7 6 6-2.7 6-6 6zm15 15c-3.3 0-6-2.7-6-6s2.7-6 6-6 6 2.7 6 6-2.7 6-6 6zM48 69c-3.3 0-6-2.7-6-6s2.7-6 6-6 6 2.7 6 6-2.7 6-6 6zM33 54c-3.3 0-6-2.7-6-6s2.7-6 6-6 6 2.7 6 6-2.7 6-6 6z"/>
</svg>
