<svg viewBox="0 0 1024 1024" xmlns="http://www.w3.org/2000/svg">
<path d="M512 981.333333a412.444444 412.444444 0 1 1 0-824.888889 412.444444 412.444444 0 0 1 0 824.888889z m0-85.333333a327.111111 327.111111 0 1 0 0-654.222222 327.111111 327.111111 0 0 0 0 654.222222zM98.133333 228.238222a42.666667 42.666667 0 0 1-48.924444-69.973333L235.52 27.818667a42.666667 42.666667 0 0 1 48.924444 69.973333L98.133333 228.181333z m830.577778 0l-186.424889-130.56a42.666667 42.666667 0 1 1 48.924445-69.916444l186.424889 130.56a42.666667 42.666667 0 1 1-48.924445 69.916444zM682.666667 526.222222a42.666667 42.666667 0 1 1 0 85.333334H469.333333V398.222222a42.666667 42.666667 0 0 1 85.333334 0v128H682.666667z" fill="#000000"></path>
</svg>
