<?xml version="1.0" encoding="utf-8"?>
<!-- Generator: Adobe Illustrator 27.7.0, SVG Export Plug-In . SVG Version: 6.00 Build 0)  -->
<svg version="1.1" id="图层_1" xmlns="http://www.w3.org/2000/svg" xmlns:xlink="http://www.w3.org/1999/xlink" x="0px" y="0px"
	 viewBox="0 0 96 96" style="enable-background:new 0 0 96 96;" xml:space="preserve">
<style type="text/css">
	.st0{fill:#3C3F44;}
</style>
<path id="形状" class="st0" d="M63.6,8.4c10.5,0,19.1,8.1,19.5,18.4l0,0.8v38.5c0,10.3-8.2,18.8-18.7,19.2l-0.8,0H32.4
	c-10.5,0-19.1-8.1-19.5-18.4l0-0.8V27.6c0-10.3,8.2-18.8,18.7-19.2l1.1,0c2.1,0,3.8,1.6,3.9,3.6s-1.4,3.8-3.4,4l-0.5,0l-0.9,0
	c-5.9,0.3-10.7,5-11,10.9l0,0.7v38.5c0,6.1,4.8,11.2,11,11.5l0.7,0h31.3c6.2,0,11.3-4.8,11.7-10.9l0-0.7V27.6
	c0-6.4-5.3-11.5-11.7-11.5c-2.2,0-3.9-1.7-3.9-3.9S61.5,8.4,63.6,8.4L63.6,8.4z M61.8,53.5c1.4,0,2.7,0.7,3.4,1.9
	c0.7,1.2,0.7,2.7,0,3.9c-0.7,1.2-2,1.9-3.4,1.9H34.5c-2.2,0-3.9-1.7-3.9-3.8c0-2.1,1.8-3.8,3.9-3.9H61.8z M34.5,32.4h27.4
	c2.1,0,3.8,1.6,3.9,3.6c0.1,2-1.4,3.8-3.5,4.1l-0.5,0H34.5c-2.1,0-3.8-1.6-3.9-3.6c-0.1-2,1.4-3.8,3.4-4.1L34.5,32.4h27.4H34.5z
	 M52,8.4c2.1,0,3.8,1.6,3.9,3.6s-1.4,3.8-3.4,4l-0.5,0h-7.9c-2.1,0-3.8-1.6-3.9-3.6s1.4-3.8,3.4-4l0.5,0H52L52,8.4z"/>
</svg>
