<svg xmlns="http://www.w3.org/2000/svg" viewBox="0 0 96 96">
    <path d="M48 8c22.1 0 40 17.9 40 40S70.1 88 48 88 8 70.1 8 48 25.9 8 48 8zm0 6c-18.8 0-34 15.2-34 34s15.2 34 34 34 34-15.2 34-34-15.2-34-34-34zM36.1 31.7c1.3-1.1 3.2-.9 4.2.4l7.7 9.2 7.7-9.2c1.1-1.3 3-1.4 4.2-.4 1.3 1.1 1.4 3 .4 4.2L53.6 44H58c1.6 0 2.9 1.2 3 2.8v.2c0 1.7-1.3 3-3 3h-6.5v4H58c1.6 0 2.9 1.2 3 2.8v.2c0 1.7-1.3 3-3 3h-6.5v4c0 1.6-1.2 2.9-2.8 3h-.2c-1.7 0-3-1.3-3-3v-4H38c-1.6 0-2.9-1.2-3-2.8V57c0-1.7 1.3-3 3-3h7.5v-4H38c-1.6 0-2.9-1.2-3-2.8V47c0-1.7 1.3-3 3-3h4.4l-6.7-8.1c-1-1.2-.9-3 .2-4.1l.2-.1z"/>
</svg>
