<svg xmlns="http://www.w3.org/2000/svg" viewBox="0 0 96 96">
    <path d="M45.5 53v-4H38c-1.7 0-3-1.3-3-3s1.3-3 3-3h4.4l-6.7-8.1c-1.1-1.3-.9-3.2.4-4.2 1.3-1.1 3.2-.9 4.2.4l7.7 9.2 7.7-9.2c1.1-1.3 3-1.4 4.2-.4 1.3 1.1 1.4 3 .4 4.2L53.6 43H58c1.7 0 3 1.3 3 3s-1.3 3-3 3h-6.5v4H58c1.7 0 3 1.3 3 3s-1.3 3-3 3h-6.5v4c0 1.7-1.3 3-3 3s-3-1.3-3-3v-4H38c-1.7 0-3-1.3-3-3s1.3-3 3-3h7.5zm31.6-8.6 4.9 2.7C81.5 28.7 66.5 14 48 14c-18.8 0-34 15.2-34 34s15.2 34 34 34c11.5 0 22-5.7 28.3-15.1.9-1.4 2.8-1.7 4.2-.8 1.4.9 1.7 2.8.8 4.2C73.9 81.2 61.5 88 48 88 25.9 88 8 70.1 8 48S25.9 8 48 8s40 17.9 40 40c0 1-.1 2.5-.2 4.4-.2 2.2-2.6 3.4-4.5 2.4l-9.1-5.1c-1.4-.8-2-2.6-1.1-4.1.7-1.5 2.6-2.1 4-1.2z"/>
</svg>
