<svg xmlns="http://www.w3.org/2000/svg" viewBox="0 0 96 96">
    <path d="M28 10c1.7 0 3 1.3 3 3 0 1.6-1.2 2.9-2.8 3H21c-2.7 0-4.9 2.1-5 4.8V75c0 2.7 2.1 4.9 4.8 5H75c2.7 0 4.9-2.1 5-4.8V21c0-2.7-2.1-4.9-4.8-5H68c-1.7 0-3-1.3-3-3 0-1.6 1.2-2.9 2.8-3H75c6 0 10.8 4.8 11 10.7V75c0 6-4.8 10.8-10.7 11H21c-6 0-10.8-4.8-11-10.7V21c0-6 4.8-10.8 10.7-11H28zm20.3 0c1.6 0 2.9 1.3 3 2.8v.2L51 56.9l9-9c1.1-1.1 2.9-1.2 4.1-.1l.1.1c1.1 1.1 1.2 2.9.1 4.1l-.1.1-14.1 14.2c-1.1 1.1-2.9 1.2-4.1.1l-.1-.1-14.2-14.2c-1.2-1.2-1.2-3.1 0-4.2 1.1-1.1 2.9-1.2 4.1-.1l.1.1 9 9 .4-43.9c0-1.7 1.3-3 3-3z"/>
</svg>
