<?xml version="1.0" encoding="UTF-8"?>
<svg id="_图层_1" xmlns="http://www.w3.org/2000/svg" xmlns:xlink="http://www.w3.org/1999/xlink" version="1.1" viewBox="0 0 96 96">
  <!-- Generator: Adobe Illustrator 29.2.1, SVG Export Plug-In . SVG Version: 2.1.0 Build 116)  -->
  <path class="st0" d="M88.2,48c0,11.1-3.9,20.6-11.8,28.4-7.8,7.8-17.3,11.8-28.4,11.8-11.1,0-20.6-3.9-28.4-11.8-7.8-7.8-11.8-17.3-11.8-28.4,0-11.1,3.9-20.6,11.8-28.4,7.8-7.8,17.3-11.8,28.4-11.8,11.1,0,20.6,3.9,28.4,11.8,7.8,7.8,11.8,17.3,11.8,28.4ZM80.2,48c0-8.9-3.1-16.5-9.4-22.8-6.3-6.3-13.9-9.4-22.8-9.4-8.9,0-16.5,3.1-22.8,9.4-6.3,6.3-9.4,13.9-9.4,22.8,0,8.9,3.1,16.5,9.4,22.8,6.3,6.3,13.9,9.4,22.8,9.4s16.5-3.1,22.8-9.4c6.3-6.3,9.4-13.9,9.4-22.8ZM44.1,61.5c-1.8-.6-3.5-1.9-5-3.7h0c-1-1.2-2.7-1.8-4.3-1.4-2.3.5-3.7,2.8-3.2,5.1.2.7.5,1.3.9,1.8h0c2.6,3.1,5.5,5.2,8.8,6.3,3.3,1.2,6.9,1.3,10.7.4,3.8-.9,6.9-2.6,9.4-5,1.3-1.3,2.4-2.8,3.3-4.5.4,0,.7,0,1.1-.1,2.3-.5,3.7-2.8,3.2-5.1-.2-1-.8-1.9-1.7-2.5l-2.4-1.8c-.9-.7-2.1-.9-3.2-.8s-2.1.8-2.8,1.7c-.3.4-.6.9-.7,1.5-.6,2.3-1.5,4.2-2.9,5.5-1.3,1.3-3.1,2.2-5.2,2.7-2.2.5-4.2.5-5.9-.2Z"/>
</svg>