<?xml version="1.0" encoding="UTF-8"?>
<svg id="_图层_1" data-name="图层_1" xmlns="http://www.w3.org/2000/svg" xmlns:xlink="http://www.w3.org/1999/xlink" version="1.1" viewBox="0 0 96 96">
  <!-- Generator: Adobe Illustrator 29.2.1, SVG Export Plug-In . SVG Version: 2.1.0 Build 116)  -->
  <path d="M47.5,6.6c21.9,0,39.7,17.8,39.7,39.7s-3.3,18-8.7,24.8l12.2,12.1c1.7,1.7,1.7,4.4,0,6.1-1.7,1.7-4.4,1.7-6.1,0l-12.2-12.1c-6.8,5.5-15.4,8.7-24.8,8.7-21.9,0-39.7-17.8-39.7-39.7S25.6,6.6,47.5,6.6ZM47.5,15.2c-17.2,0-31.1,13.9-31.1,31.1s13.9,31.1,31.1,31.1,31.1-13.9,31.1-31.1-13.9-31.1-31.1-31.1Z"/>
</svg>