<svg viewBox="0 0 96 96" xmlns="http://www.w3.org/2000/svg">
  <path d="M46.6286268,3 C70.724052,3 90.2572536,22.5003775 90.2572536,46.5553123 C90.2572536,56.8221692 86.6787538,66.5353614 80.3051433,74.2484017 L91.7111615,85.5537148 C93.421011,87.2485988 93.43083,90.0063513 91.7330936,91.7133271 C90.0353567,93.4203033 87.2729622,93.4301063 85.5631127,91.7352224 L85.5631127,91.7352224 L71.8158567,78.1082905 C70.8349783,77.1359974 70.4135624,75.8139247 70.5530304,74.5411013 C70.3307173,73.221337 70.715969,71.812895 71.7214291,70.7749283 C77.9767005,64.317426 81.5315282,55.7214249 81.5315282,46.5553123 C81.5315282,27.3113644 65.904967,11.7110624 46.6286268,11.7110624 C27.3522866,11.7110624 11.7257254,27.3113644 11.7257254,46.5553123 C11.7257254,65.79926 27.3522866,81.399562 46.6286268,81.399562 C50.6083062,81.399562 54.4912488,80.7362172 58.1635903,79.4529976 C60.4378454,78.6583083 62.9268006,79.8546359 63.7228271,82.1250694 C64.5188541,84.3955028 63.3205127,86.8802755 61.0462575,87.6749644 C56.4505681,89.2808282 51.5932879,90.1106245 46.6286268,90.1106245 C22.5332016,90.1106245 3,70.610247 3,46.5553123 C3,22.5003775 22.5332016,3 46.6286268,3 Z" />
</svg>