<svg xmlns="http://www.w3.org/2000/svg" viewBox="0 0 96 96">
    <path d="m88.5 51.8-17.1 31c-1.2 2.2-3.5 3.6-6.1 3.6h-34c-2.5 0-4.8-1.4-6.1-3.6l-17.1-31c-1.2-2.1-1.2-4.7 0-6.8l17.1-31c1.2-2.2 3.5-3.6 6.1-3.6h34c2.5 0 4.8 1.4 6.1 3.6l17.1 31c1.2 2.1 1.2 4.7 0 6.8zm-5.2-2.9c.2-.3.2-.7 0-1l-17.1-31c-.2-.3-.5-.5-.9-.5H31.5c-.4 0-.7.2-.9.5l-17.1 31c-.2.3-.2.7 0 1l17.1 31c.2.3.5.5.9.5h33.9c.4 0 .7-.2.9-.5l17-31zM48.2 64c-8.8 0-16-7.2-16-16s7.2-16 16-16 16 7.2 16 16-7.2 16-16 16zm0-6c5.5 0 10-4.5 10-10s-4.5-10-10-10-10 4.5-10 10 4.4 10 10 10z"/>
</svg>
