<svg xmlns="http://www.w3.org/2000/svg" viewBox="0 0 96 96">
    <path d="M34 76c2.8 0 5 2.2 5 5s-2.2 5-5 5-5-2.2-5-5 2.2-5 5-5zm32 0c2.8 0 5 2.2 5 5s-2.2 5-5 5-5-2.2-5-5 2.2-5 5-5zM13.8 11l.1.2 3.3 11.5c.4-.2.8-.3 1.2-.5.6-.2 1.2-.2 1.8-.2h59.5c3.9 0 7 3.1 7 7 0 .6-.1 1.2-.2 1.8l-9.8 36c-.8 3-3.6 5.2-6.8 5.2H30.1c-3.2 0-5.9-2.1-6.8-5.2l-6.9-25.4c-.1-.1-.2-.3-.2-.5l-.1-.2-8-28c-.5-1.6.5-3.3 2.1-3.7 1.5-.3 3.1.5 3.6 2zm66 17H19.9c-.5.1-.8.7-.7 1.2l9.8 36c.1.4.5.7 1 .7h39.9c.5 0 .8-.3 1-.7l9.8-36v-.3c.1-.5-.4-.9-.9-.9zM63 52c1.7 0 3 1.3 3 3 0 1.6-1.2 2.9-2.8 3H37c-1.7 0-3-1.3-3-3 0-1.6 1.2-2.9 2.8-3H63z"/>
</svg>
