<svg xmlns="http://www.w3.org/2000/svg" viewBox="0 0 96 96">
    <path d="M48 8c22.1 0 40 17.9 40 40S70.1 88 48 88 8 70.1 8 48 25.9 8 48 8zm0 6c-18.8 0-34 15.2-34 34s15.2 34 34 34 34-15.2 34-34-15.2-34-34-34zm2 12.4c1.2.5 2.2 1.5 2.7 2.8l3.5 8.6 9.1.7c2.8.2 4.9 2.7 4.7 5.5-.1 1.3-.7 2.6-1.8 3.5l-6.9 6.1 2.1 9.1c.6 2.8-1 5.5-3.8 6.2-1.3.3-2.7.1-3.9-.6L48 63.4l-7.7 4.8c-2.4 1.5-5.6.7-7.1-1.7-.7-1.2-.9-2.5-.6-3.8l2.1-9.1-6.9-6.1c-2.1-1.8-2.4-5.1-.6-7.2.9-1 2.1-1.7 3.5-1.8l9.1-.7 3.5-8.6c1-2.6 4.1-3.9 6.7-2.8zm-2 7.1-2.9 7c-.7 1.8-2.4 3-4.3 3.2l-7.6.6 5.8 5.1c1.4 1.3 2.1 3.2 1.6 5.1L38.9 62l6.4-4c1.6-1 3.7-1 5.4 0l6.4 4-1.8-7.5c-.4-1.9.2-3.8 1.6-5.1l5.8-5.1-7.6-.6c-1.9-.2-3.6-1.4-4.3-3.2l-2.8-7z"/>
</svg>
