<svg xmlns="http://www.w3.org/2000/svg" viewBox="0 0 96 96">
  <path d="M72 0c13.255 0 24 10.745 24 24v48c0 13.255-10.745 24-24 24H24C10.745 96 0 85.255 0 72V24C0 10.745 10.745 0 24 0h48ZM50.17 11.417a5.04 5.04 0 0 0-6.462 1.966l-.242.455-7.274 15.497a5.04 5.04 0 0 1-3.257 2.726l-.544.114-16.667 2.547a5.04 5.04 0 0 0-3.208 8.088l.362.414 12.374 12.682a5.04 5.04 0 0 1 1.428 3.739l-.061.592-2.877 17.638a5.04 5.04 0 0 0 6.917 5.462l.495-.24 14.436-7.98a5.04 5.04 0 0 1 4.36-.248l.516.248 14.436 7.98a5.04 5.04 0 0 0 7.47-4.71l-.057-.512-2.877-17.638a5.04 5.04 0 0 1 .976-3.88l.39-.45 12.374-12.683a5.04 5.04 0 0 0-2.34-8.399l-.506-.103-16.667-2.547a5.04 5.04 0 0 1-3.537-2.35l-.264-.49-7.273-15.497a5.04 5.04 0 0 0-2.421-2.42Z"/>
</svg>
