<svg xmlns="http://www.w3.org/2000/svg" viewBox="0 0 96 96">
  <path d="M68.7 80H27.3c-1.8 0-3.3-1.8-3.3-4s1.5-4 3.3-4h41.4c1.8 0 3.3 1.8 3.3 4s-1.5 4-3.3 4m15.4-26.7c-1 .1-1.9.2-2.9.2-5.2 0-10.3-1.7-14.4-4.7-1.3-1-3.1-1-4.4 0-4.1 3.1-9.2 4.8-14.4 4.7-5.2 0-10.3-1.7-14.4-4.7-1.3-1-3.1-1-4.4 0-4.9 3.6-11.2 5.2-17.3 4.5-1-.1-2 .2-2.7.8S8 55.7 8 56.6v28.6C8 89 11.1 92 14.9 92h66.3c3.8 0 6.9-3 6.9-6.8V56.6c-.1-2-1.9-3.5-4-3.3m10.6-28L87.1 9.9C85.2 6.3 81.6 4 77.7 4H18.3c-3.9 0-7.6 2.3-9.4 5.9L1.3 25.3c-4.2 10 2 21.8 12.6 22.7 5.9.5 11.6-2.3 14.9-7.3.6-1 1.7-1.5 2.8-1.5 1.1 0 2.2.6 2.8 1.5C37.5 45.2 42.6 48 48 48s10.5-2.8 13.5-7.4c.6-1 1.7-1.6 2.8-1.6s2.2.6 2.8 1.6c3.3 5 9 7.8 14.9 7.3 10.6-.8 16.9-12.6 12.7-22.6"/>
</svg>
