<?xml version="1.0" encoding="UTF-8"?>
<svg id="_图层_1" xmlns="http://www.w3.org/2000/svg" xmlns:xlink="http://www.w3.org/1999/xlink" version="1.1" viewBox="0 0 96 96">
  <!-- Generator: Adobe Illustrator 29.2.1, SVG Export Plug-In . SVG Version: 2.1.0 Build 116)  -->
  <path class="st0" d="M6.1,31.5L15.6,13.6c1.9-3.8,5.2-5.6,9.7-5.6h46.6c4.5,0,7.8,1.9,9.7,5.7l9.5,17.8c3.2,6.3,2.1,11.8-3.3,16.6-.4.3-.8.6-1.2.9v23c0,4.4-1.6,8.2-4.7,11.3-3.1,3.1-6.9,4.7-11.3,4.7H26.6c-4.4,0-8.2-1.6-11.3-4.7-3.1-3.1-4.7-6.9-4.7-11.3v-23c-.4-.3-.8-.6-1.2-.9-5.4-4.8-6.5-10.3-3.3-16.5ZM18.6,51.3v20.7c0,2.2.8,4.1,2.3,5.7,1.6,1.6,3.4,2.3,5.7,2.3h44c2.2,0,4.1-.8,5.7-2.3,1.6-1.6,2.3-3.4,2.3-5.7v-20.7c-2.6,0-4.9-.8-7-2.3l-6.3-4.4-.7.8c-3.7,3.9-8.4,6.1-14,6.6-5.6.5-10.7-.9-15-4.2-1-.7-1.9-1.5-2.7-2.4l-.7-.8-6.3,4.4c-2.1,1.5-4.5,2.2-7,2.3ZM22.7,17.4l-9.5,17.8c-1.3,2.6-.8,4.8,1.5,6.9,2,1.8,4.1,1.9,6.4.3l6.6-4.5c3.6-2.5,6.9-2.1,9.8,1l1,1c.5.5,1,1,1.6,1.4,2.8,2,6,2.9,9.7,2.6,3.6-.3,6.6-1.6,8.9-4.1l1-1c3-3.1,6.2-3.5,9.8-1l6.6,4.5c2.3,1.6,4.4,1.4,6.4-.3,2.3-2,2.8-4.3,1.5-6.8l-9.5-17.9c-.5-.9-1.3-1.3-2.6-1.3H25.3c-1.3,0-2.1.4-2.6,1.3h0Z"/>
</svg>