<svg xmlns="http://www.w3.org/2000/svg" viewBox="0 0 96 96">
    <path d="M60 37c1.7 0 3 1.3 3 3s-1.3 3-3 3H36c-1.7 0-3-1.3-3-3s1.3-3 3-3h24zm0 16c1.7 0 3 1.3 3 3s-1.3 3-3 3H36c-1.7 0-3-1.3-3-3s1.3-3 3-3h24zM11 41c-1.7 0-3-1.3-3-3V24c0-6.1 4.9-11 11-11h58c6.1 0 11 4.9 11 11v14c0 1.7-1.3 3-3 3-3.9 0-7 3.1-7 7s3.1 7 7 7c1.7 0 3 1.3 3 3v14c0 6.1-4.9 11-11 11H19c-6.1 0-11-4.9-11-11V58c0-1.7 1.3-3 3-3 3.9 0 7-3.1 7-7s-3.1-7-7-7zm13 7c0 6.1-4.3 11.3-10 12.7V72c0 2.8 2.2 5 5 5h58c2.8 0 5-2.2 5-5V60.7c-5.7-1.4-10-6.5-10-12.7s4.3-11.3 10-12.7V24c0-2.8-2.2-5-5-5H19c-2.8 0-5 2.2-5 5v11.3c5.7 1.4 10 6.6 10 12.7z"/>
</svg>
