<svg xmlns="http://www.w3.org/2000/svg" viewBox="0 0 96 96">
    <path d="M51 74h9.9c.6 0 1-.4 1-1l-.3-8.8c0-1 .5-2 1.3-2.6C70.4 56.5 75 48.2 75 39c0-14.9-12.1-27-27-27S21 24.1 21 39c0 9.2 4.6 17.6 12.1 22.5.8.5 1.3 1.4 1.3 2.4l.3 9.1c0 .5.5 1 1 1H45V53.7l-7.2-7.6c-1.1-1.2-1.1-3.1.1-4.2 1.2-1.1 3.1-1.1 4.2.1l5.9 6.3 6.8-6.4c1.2-1.1 3.1-1.1 4.2.1 1.1 1.2 1.1 3.1-.1 4.2L51 53.8V74zm30-35c0 10.6-5.1 20.4-13.4 26.5l.2 7.2v.2c0 3.9-3.1 7-7 7h-25c-3.8 0-6.9-3-7-6.8l-.3-7.6C20.1 59.5 15 49.7 15 39 15 20.8 29.8 6 48 6s33 14.8 33 33zM39 90c-1.7 0-3-1.3-3-3s1.3-3 3-3h18c1.7 0 3 1.3 3 3s-1.3 3-3 3H39z"/>
</svg>
