<svg xmlns="http://www.w3.org/2000/svg" viewBox="0 0 96 96">
    <path d="M44.6 51h5.9l.8-6h-5.9l-.8 6zM48 8c22.1 0 40 17.9 40 40S70.1 88 48 88c-7.3 0-14.4-2-20.5-5.7-.2-.1-.9-.5-1.9-1.1l-9.8 2.7c-2.2.6-4.3-1.4-3.7-3.7l2.7-9.8c-1-1.8-1.7-2.9-2-3.6C9.6 61.1 8 54.7 8 48 8 25.9 25.9 8 48 8zm8.4 22c-1.6-.2-3.2.9-3.4 2.6l-.8 6.4h-5.9l.7-5.6c.2-1.6-.9-3.2-2.6-3.4-1.6-.2-3.2.9-3.4 2.6l-.8 6.4H33c-1.7 0-3 1.3-3 3s1.3 3 3 3h6.4l-.8 6H33c-1.7 0-3 1.3-3 3s1.3 3 3 3h4.8l-.8 5.6c-.2 1.6.9 3.2 2.6 3.4 1.6.2 3.2-.9 3.4-2.6l.9-6.4h5.9l-.8 5.6c-.2 1.6.9 3.2 2.6 3.4 1.6.2 3.2-.9 3.4-2.6l.9-6.4H63c1.7 0 3-1.3 3-3s-1.3-3-3-3h-6.4l.8-6H63c1.7 0 3-1.3 3-3s-1.3-3-3-3h-4.8l.7-5.6c.3-1.6-.9-3.2-2.5-3.4z"/>
</svg>
