<svg xmlns="http://www.w3.org/2000/svg" viewBox="0 0 96 96">
    <path d="M44.6 51h5.9l.8-6h-5.9l-.8 6zm-.8 6-.8 6.4c-.2 1.6-1.7 2.8-3.4 2.6-1.6-.2-2.8-1.7-2.6-3.4l.7-5.6H33c-1.7 0-3-1.3-3-3s1.3-3 3-3h5.6l.8-6H33c-1.7 0-3-1.3-3-3s1.3-3 3-3h7.2l.9-6.4c.2-1.6 1.7-2.8 3.4-2.6 1.6.2 2.8 1.7 2.6 3.4l-.9 5.6h5.9l.9-6.4c.2-1.6 1.7-2.8 3.4-2.6 1.6.2 2.8 1.7 2.6 3.4l-.8 5.6H63c1.7 0 3 1.3 3 3s-1.3 3-3 3h-5.6l-.8 6H63c1.7 0 3 1.3 3 3s-1.3 3-3 3h-7.2l-.8 6.4c-.2 1.6-1.7 2.8-3.4 2.6-1.6-.2-2.8-1.7-2.6-3.4l.7-5.6h-5.9zm-29 13.4c-1-1.8-1.7-2.9-2-3.6C9.6 61.1 8 54.7 8 48 8 25.9 25.9 8 48 8s40 17.9 40 40-17.9 40-40 40c-7.3 0-14.4-2-20.5-5.7-.2-.1-.9-.5-1.9-1.1l-9.8 2.7c-2.2.6-4.3-1.4-3.7-3.7l2.7-9.8zm6.1.4-1.6 5.9 5.9-1.6c.8-.2 1.6-.1 2.3.3 1.7 1 2.7 1.6 3 1.8C35.8 80.3 41.8 82 48 82c18.8 0 34-15.2 34-34S66.8 14 48 14 14 29.2 14 48c0 5.7 1.4 11.2 4 16 .3.6 1.2 2.1 2.6 4.4.4.8.5 1.6.3 2.4z"/>
</svg>
