<?xml version="1.0" encoding="UTF-8"?>
<svg id="_图层_1" data-name="图层_1" xmlns="http://www.w3.org/2000/svg" xmlns:xlink="http://www.w3.org/1999/xlink" version="1.1" viewBox="0 0 96 96">
  <path class="st0" d="M72.9,43.1l-7.4-2.7h0c-.4-.1-.8-.2-1.1-.2-1.9,0-3.4,1.5-3.4,3.4s.9,2.7,2.2,3.1h0l12.3,4.5c1.7.6,3.7-.3,4.3-2,.1-.4.2-.8.2-1.1,0-8.8-3.1-16.4-9.4-22.6-6.2-6.2-13.8-9.4-22.6-9.4s-16.4,3.1-22.6,9.4c-3,3-5.2,6.3-6.9,10.2h0c-.2.4-.3.9-.3,1.3,0,1.9,1.5,3.4,3.4,3.4s2.6-.8,3.1-2h0c1.3-3,3.1-5.7,5.4-8,4.9-4.9,10.9-7.4,17.9-7.4,7,0,12.9,2.5,17.9,7.4,3.7,3.7,6.1,8,7,12.9ZM23.1,52.9l7.4,2.7h0c.4.1.8.2,1.1.2,1.9,0,3.3-1.5,3.3-3.3s-.9-2.7-2.2-3.1h0l-12.3-4.5c-1.7-.6-3.7.3-4.3,2-.1.4-.2.8-.2,1.1,0,8.8,3.1,16.4,9.4,22.6,6.2,6.2,13.8,9.4,22.6,9.4s16.4-3.1,22.6-9.4c3-3,5.2-6.3,6.9-10.2h0c.2-.4.3-.9.3-1.3,0-1.9-1.5-3.3-3.3-3.3s-2.6.8-3.1,2h0c-1.3,3-3.1,5.7-5.4,8-4.9,4.9-10.9,7.4-17.9,7.4s-12.9-2.5-17.9-7.4c-3.7-3.7-6.1-8-7-12.9Z"/>
</svg>