<svg xmlns="http://www.w3.org/2000/svg" viewBox="0 0 96 96">
    <path d="m68 34.2 9.9-4.9c3.5-1.7 7.7-.3 9.4 3.1.5 1 .7 2 .7 3.1v25.3c0 3.9-3.1 7-7 7-1.1 0-2.2-.3-3.2-.8L68 61.9V66c0 6.1-4.9 11-11 11H19c-6.1 0-11-4.9-11-11V30c0-6.1 4.9-11 11-11h38c6.1 0 11 4.9 11 11v4.2zm0 6.7v14.3l12.5 6.5c.1.1.3.1.5.1.6 0 1-.4 1-1V35.5c0-.2 0-.3-.1-.4-.2-.5-.8-.7-1.3-.4L68 40.9zM62 66V30c0-2.8-2.2-5-5-5H19c-2.8 0-5 2.2-5 5v36c0 2.8 2.2 5 5 5h38c2.8 0 5-2.2 5-5zM27 44c-3.3 0-6-2.7-6-6s2.7-6 6-6 6 2.7 6 6-2.7 6-6 6z"/>
</svg>
