<svg xmlns="http://www.w3.org/2000/svg" viewBox="0 0 96 96">
    <path d="M77 13c6.1 0 11 4.9 11 11v48c0 6.1-4.9 11-11 11H19c-6.1 0-11-4.9-11-11V24c0-6.1 4.9-11 11-11h58zM39.9 37.1c-1.6-.5-3.3.4-3.8 2L34 45.9l-2.1-6.8a3.037 3.037 0 0 0-5.8 1.8l5 16c.9 2.8 4.8 2.8 5.7 0l5-16c.6-1.6-.3-3.3-1.9-3.8zM48 37c-1.7 0-3 1.3-3 3v16c0 1.7 1.3 3 3 3s3-1.3 3-3V40c0-1.7-1.3-3-3-3zm15 0h-6c-1.7 0-3 1.3-3 3v16c0 1.7 1.3 3 3 3s3-1.3 3-3v-5h3c3.9 0 7-3.1 7-7s-3.1-7-7-7zm0 6c.6 0 1 .4 1 1s-.4 1-1 1h-3v-2h3z"/>
</svg>
