<svg xmlns="http://www.w3.org/2000/svg" viewBox="0 0 96 96">
  <path d="m24.1 30.2 20.2-12.5c2.3-1.4 5.4-.7 6.9 1.6.5.8.8 1.7.8 2.6V74c0 2.7-2.2 4.9-5 4.9-.9 0-1.9-.3-2.6-.8L24.1 65.8H15c-3.9 0-7-3.1-7-6.9V37.1c0-3.8 3.1-6.9 7-6.9h9.1zm2.5 5.5c-.5.3-1 .5-1.6.5H15c-.6 0-1 .4-1 1v21.7c0 .5.4 1 1 1h10c.6 0 1.1.2 1.6.5l19.4 12V23.7l-19.4 12zm51.5 12.9 8.1 8.1c1.1 1.1 1.1 2.9 0 4.1-1.1 1.1-2.9 1.1-4.1 0L74 52.7l-8.1 8.1c-1.1 1.1-2.9 1.1-4.1 0s-1.1-2.9 0-4.1l8.1-8.1-8.1-8.1c-1.1-1.1-1.1-2.9 0-4.1s2.9-1.1 4.1 0l8.1 8.1 8.1-8.1c1.1-1.1 2.9-1.1 4.1 0 1.1 1.1 1.1 2.9 0 4.1l-8.1 8.1z"/>
</svg>