<svg xmlns="http://www.w3.org/2000/svg" viewBox="0 0 96 96">
  <path d="M47.6 10.1c.3.4.4.8.4 1.3v73.2c0 1.1-.9 2-2 2-.5 0-.9-.2-1.3-.4L19.2 65.6 3.8 60.5c-.8-.3-1.4-1-1.4-1.9V37.4c0-.9.6-1.6 1.4-1.9l15.4-5.1L44.7 9.8c.9-.7 2.2-.5 2.9.3zM78 11.6C85.8 22.1 90 34.7 90 48c0 13.3-4.2 25.9-12 36.3-1.2 1.6-3.4 1.9-5 .8-1.6-1.2-1.9-3.4-.8-5C79 70.9 82.7 59.7 82.7 48c0-11.7-3.7-22.9-10.6-32.1-1.2-1.6-.8-3.9.8-5s4-.9 5.1.7zM63 24.3c5.1 6.8 7.9 15 7.9 23.7S68.1 65 63 71.8c-1.2 1.6-3.5 1.9-5 .7s-1.9-3.5-.7-5c4.2-5.6 6.5-12.3 6.5-19.5 0-7.1-2.3-13.8-6.4-19.4-1.2-1.6-.9-3.8.7-5 1.4-1.2 3.7-.9 4.9.7z" />
</svg>
