<svg xmlns="http://www.w3.org/2000/svg" viewBox="0 0 96 96">
  <path d="M47.6 10.1c.3.4.4.8.4 1.3v73.2c0 1.1-.9 2-2 2-.5 0-.9-.2-1.3-.4L19.2 65.6 3.8 60.5c-.8-.3-1.4-1-1.4-1.9V37.4c0-.9.6-1.6 1.4-1.9l15.4-5.1L44.7 9.8c.9-.7 2.2-.5 2.9.3zm37.1 25.2c1.3 1.3 1.4 3.4.2 4.8l-.2.3-7.6 7.6 7.6 7.6c1.4 1.4 1.4 3.7 0 5.1-1.3 1.3-3.4 1.4-4.8.2l-.3-.2-7.6-7.6-7.6 7.6c-1.4 1.4-3.7 1.4-5.1 0-1.3-1.3-1.4-3.4-.2-4.8l.2-.3 7.6-7.6-7.6-7.6c-1.4-1.4-1.4-3.7 0-5.1 1.3-1.3 3.4-1.4 4.8-.2l.3.2 7.6 7.6 7.6-7.6c1.4-1.4 3.7-1.4 5.1 0z" />
</svg>
