<svg xmlns="http://www.w3.org/2000/svg" viewBox="0 0 96 96">
    <path d="M47.6 36.9c.3 0 .5-.1.7-.1 1.5-1.2 4.5-2.7 7.2-3.5C60 31.9 64 32.1 66.6 35c.8.9 1.3 1.8 1.6 2.9.6 2.2.2 3.5-1.1 6.5-1 2.2-1 2.8-.4 3.7.5.6 1 .8 2.1 1 .3 0 .5.1 1.2.1 5.4.3 8 2.5 8 9.2 0 8.1-5.7 14.8-15 19.6-7.4 3.7-16.9 6-24.1 6-8.5 0-16.5-1.7-22.2-5.6C8.8 73 6 64.1 9.5 51.9c2.8-9.7 14.8-23.1 26.2-28 2.5-1.1 5.8-1.3 8.1-.2 3.6 1.8 4.2 5.7 1.9 10.5-.9 1.8-.8 2.1 0 2.4.5.2 1.2.3 1.9.3zm-7.3-5.3c.6-1.2.8-2.1.8-2.5-.6-.2-2-.1-3 .3-9.7 4.1-20.4 16.2-22.8 24.1-2.8 9.8-.9 16 4.8 19.9C24.7 76.5 31.6 78 39 78c6.2 0 14.8-2.1 21.3-5.4C67.8 68.7 72 63.8 72 58.4c0-1.1-.1-2-.3-2.5-.1-.3-.2-.4-.2-.4-.1-.1-.5-.2-1.9-.3-.7 0-1-.1-1.5-.1-2.6-.3-4.6-1.2-6.2-3.3-2.4-3.2-2.1-5.7-.4-9.8.7-1.7.9-2.2.8-2.5 0-.1-.1-.2-.3-.4-.7-.7-2.4-.8-4.9-.1-1.2.4-2.4.9-3.5 1.4-.9.4-1.6.9-1.8 1.1-1.8 1.6-5.7 1.8-8.5.7-3.9-1.6-5.4-5.6-3-10.6zm47.4 8.1c-.3 1.6-1.8 2.8-3.4 2.5s-2.8-1.8-2.5-3.4c.1-.9.2-1.8.2-2.8 0-9.9-8.1-18-18-18h-.8c-1.7.1-3.1-1.2-3.1-2.9S61.3 12 63 12h1c13.3 0 24 10.7 24 24 0 1.2-.1 2.5-.3 3.7zm-9.8-1.4c-.1 1.7-1.6 2.9-3.3 2.7s-2.9-1.6-2.7-3.3V37c0-4.4-3.6-8-8-8-1.7 0-3-1.3-3-3s1.3-3 3-3c7.7 0 14 6.3 14 14 .1.4.1.8 0 1.3z"/>
</svg>
